<?xml version="1.0" encoding="UTF-8" standalone="no"?>
<svg width="28px" height="30px" viewBox="0 0 28 30" version="1.1" xmlns="http://www.w3.org/2000/svg" xmlns:xlink="http://www.w3.org/1999/xlink">
    <!-- Generator: Sketch 50.2 (55047) - http://www.bohemiancoding.com/sketch -->
    <title>application</title>
    <desc>Created with Sketch.</desc>
    <defs></defs>
    <g id="Page-1" stroke="none" stroke-width="1" fill="none" fill-rule="evenodd">
        <g id="website-copy-3" transform="translate(-1189.000000, -1312.000000)" fill="#979797" fill-rule="nonzero">
            <g id="Group-17-Copy-4" transform="translate(1165.000000, 1282.000000)">
                <g id="application" transform="translate(24.000000, 30.000000)">
                    <path d="M3.5742909,3.8506536 C3.27950402,3.55586672 2.80661674,3.55586672 2.51182986,3.84451221 C2.21090159,4.13929909 2.21090159,4.61218637 2.50568847,4.90697325 L4.29897531,6.71254288 C4.44022736,6.85379492 4.63061055,6.93363304 4.83327653,6.93363304 C5.02980111,6.93363304 5.22018431,6.85379492 5.36143635,6.71254288 L10.821135,1.2835512 C11.1159219,0.988764322 11.1159219,0.515877037 10.8272764,0.221090159 C10.5324895,-0.0736967196 10.0596022,-0.0736967196 9.76481535,0.221090159 L8.11278055,1.86084217 C7.23456131,0.951915962 6.01242404,0.429897531 4.72887284,0.429897531 C2.13106348,0.429897531 0.0184241799,2.54253683 0.0184241799,5.14034619 C0.0184241799,7.73815556 2.13106348,9.85079486 4.72887284,9.85079486 C6.82308796,9.85079486 8.63479898,8.50582972 9.24279692,6.50373551 C9.36562479,6.10454494 9.13839323,5.6869302 8.73920267,5.56410233 C8.3400121,5.44741586 7.92239736,5.66850602 7.79956949,6.06769658 C7.39423754,7.40652032 6.12911052,8.3461535 4.72887284,8.3461535 C2.96015157,8.3461535 1.52306554,6.90906746 1.52306554,5.14034619 C1.52306554,3.37162492 2.96015157,1.93453889 4.72887284,1.93453889 C5.60709208,1.93453889 6.44232157,2.30302249 7.04417812,2.92944461 L4.83941792,5.12192201 L3.5742909,3.8506536 Z" id="Shape"></path>
                    <path d="M4.72887284,10.477217 C2.13106348,10.477217 0.0184241799,12.5898563 0.0184241799,15.1876656 C0.0184241799,17.785475 2.13106348,19.8981143 4.72887284,19.8981143 C7.32668221,19.8981143 9.43932151,17.785475 9.43932151,15.1876656 C9.43932151,12.5898563 7.32668221,10.477217 4.72887284,10.477217 Z M4.72887284,18.3934729 C2.96015157,18.3934729 1.52306554,16.9563869 1.52306554,15.1876656 C1.52306554,13.4189444 2.96015157,11.9818583 4.72887284,11.9818583 C6.49759411,11.9818583 7.93468015,13.4189444 7.93468015,15.1876656 C7.93468015,16.9563869 6.49759411,18.3934729 4.72887284,18.3934729 Z" id="Shape"></path>
                    <path d="M9.43932151,25.2411265 C9.43932151,22.6433171 7.32668221,20.5306778 4.72887284,20.5306778 C2.13106348,20.5306778 0.0184241799,22.6433171 0.0184241799,25.2411265 C0.0184241799,27.8389358 2.13106348,29.9515751 4.72887284,29.9515751 C7.32668221,29.9515751 9.43932151,27.8389358 9.43932151,25.2411265 Z M4.72887284,28.4530752 C2.96015157,28.4530752 1.52306554,27.0159891 1.52306554,25.2472679 C1.52306554,23.4785466 2.96015157,22.0414606 4.72887284,22.0414606 C6.49759411,22.0414606 7.93468015,23.4785466 7.93468015,25.2472679 C7.93468015,27.0159891 6.49759411,28.4530752 4.72887284,28.4530752 Z" id="Shape"></path>
                    <path d="M26.4755465,14.4322743 L11.8406063,14.4322743 C11.4229915,14.4322743 11.0852149,14.7700509 11.0852149,15.1876656 C11.0852149,15.6052804 11.4229915,15.943057 11.8406063,15.943057 L26.4755465,15.943057 C26.8931613,15.943057 27.2309379,15.6052804 27.2309379,15.1876656 C27.2309379,14.7700509 26.8931613,14.4322743 26.4755465,14.4322743 Z" id="Shape"></path>
                    <path d="M26.4755465,4.39109621 L11.8406063,4.39109621 C11.4229915,4.39109621 11.0852149,4.72887284 11.0852149,5.14648759 C11.0852149,5.56410233 11.4229915,5.90187896 11.8406063,5.90187896 L26.4755465,5.90187896 C26.8931613,5.90187896 27.2309379,5.56410233 27.2309379,5.14648759 C27.2309379,4.72887284 26.8931613,4.39109621 26.4755465,4.39109621 Z" id="Shape"></path>
                    <path d="M26.4755465,24.4918765 L11.8406063,24.4918765 C11.4229915,24.4918765 11.0852149,24.8296531 11.0852149,25.2472679 C11.0852149,25.6648826 11.4229915,26.0026592 11.8406063,26.0026592 L26.4755465,26.0026592 C26.8931613,26.0026592 27.2309379,25.6648826 27.2309379,25.2472679 C27.2309379,24.8235117 26.8931613,24.4918765 26.4755465,24.4918765 Z" id="Shape"></path>
                </g>
            </g>
        </g>
    </g>
</svg>