<?xml version="1.0" encoding="UTF-8" standalone="no"?>
<svg width="25px" height="31px" viewBox="0 0 25 31" version="1.1" xmlns="http://www.w3.org/2000/svg" xmlns:xlink="http://www.w3.org/1999/xlink">
    <!-- Generator: Sketch 50.2 (55047) - http://www.bohemiancoding.com/sketch -->
    <title>apple copy 2</title>
    <desc>Created with Sketch.</desc>
    <defs></defs>
    <g id="Page-1" stroke="none" stroke-width="1" fill="none" fill-rule="evenodd">
        <g id="website-copy-3" transform="translate(-474.000000, -2310.000000)" fill="#FFFFFF">
            <g id="download-my-app" transform="translate(427.000000, 2012.000000)">
                <g id="app-01" transform="translate(0.000000, 161.000000)">
                    <g id="Group-15" transform="translate(30.000000, 122.000000)">
                        <g id="Group-4-Copy">
                            <g id="apple-copy-2" transform="translate(17.000000, 15.000000)">
                                <path d="M20.8502716,16.2901198 C20.8116488,12.4075599 24.0167387,10.5453593 24.1600021,10.452994 C22.3592536,7.81744012 19.5537896,7.45666168 18.5541638,7.41482036 C16.1665141,7.17305389 13.8956309,8.82028443 12.6836548,8.82028443 C11.4752716,8.82028443 9.60543626,7.45052395 7.62542129,7.4864521 C5.02317578,7.52507485 2.62362488,8.9995509 1.28357997,11.3301647 C-1.42008769,16.0217066 0.591214701,22.972006 3.22646919,26.7770958 C4.51419374,28.6395958 6.04944823,30.7315868 8.0654662,30.6567365 C10.0068584,30.5792665 10.741065,29.4006737 13.0882955,29.4006737 C15.4353015,29.4006737 16.0948824,30.6567365 18.1495231,30.6181138 C20.2385949,30.5792665 21.5621728,28.719985 22.841065,26.8519461 C24.3196578,24.6912425 24.9284153,22.5991766 24.9643434,22.4919162 C24.9178614,22.4705838 20.8906159,20.9279192 20.8502716,16.2901198 Z M16.9898674,4.89595808 C18.0600021,3.59775449 18.7822327,1.79670659 18.5851518,0 C17.0439842,0.0627994012 15.1756458,1.02649701 14.0698824,2.32178144 C13.0778165,3.47088323 12.2091039,5.30471557 12.4418884,7.06541916 C14.162547,7.19962575 15.9189093,6.19094311 16.9898674,4.89595808 Z" id="Fill-1"></path>
                            </g>
                        </g>
                    </g>
                </g>
            </g>
        </g>
    </g>
</svg>