<?xml version="1.0" encoding="UTF-8" standalone="no"?>
<svg width="30px" height="30px" viewBox="0 0 30 30" version="1.1" xmlns="http://www.w3.org/2000/svg" xmlns:xlink="http://www.w3.org/1999/xlink">
    <!-- Generator: Sketch 50.2 (55047) - http://www.bohemiancoding.com/sketch -->
    <title>booking-history</title>
    <desc>Created with Sketch.</desc>
    <defs></defs>
    <g id="Page-1" stroke="none" stroke-width="1" fill="none" fill-rule="evenodd">
        <g id="website-copy-3" transform="translate(-428.000000, -1732.000000)" fill="#979797" fill-rule="nonzero">
            <g id="Group-17-Copy-12" transform="translate(405.000000, 1702.000000)">
                <g id="booking-history" transform="translate(23.000000, 30.000000)">
                    <path d="M17.0208772,14.1994737 C17.1091813,14.3721637 17.2848538,14.4719298 17.4664912,14.4719298 C17.5423392,14.4719298 17.6201754,14.4544444 17.6925731,14.4175439 C17.7219883,14.4025731 20.6592982,12.9104678 22.1079532,12.4528655 C22.3704678,12.3695322 22.5161404,12.0890643 22.432807,11.8266082 C22.3499415,11.5640936 22.0715205,11.4178947 21.8065497,11.5007602 C20.2805263,11.9833333 17.3632164,13.4654386 17.2394737,13.5283041 C16.9939181,13.6530409 16.8961404,13.9535088 17.0208772,14.1994737 Z" id="Shape"></path>
                    <path d="M17.4664912,8.48368421 C17.5423392,8.48368421 17.6201754,8.46619883 17.6925731,8.42929825 C17.7219883,8.41432749 20.6592982,6.92222222 22.1079532,6.46461988 C22.3704678,6.38128655 22.5161404,6.10081871 22.432807,5.83836257 C22.3499415,5.57584795 22.0715205,5.42964912 21.8065497,5.51251462 C20.2805263,5.99508772 17.3632164,7.47719298 17.2394737,7.54005848 C16.9939766,7.66479532 16.8961404,7.96520468 17.0208772,8.21122807 C17.1091813,8.38385965 17.2848538,8.48368421 17.4664912,8.48368421 Z" id="Shape"></path>
                    <path d="M29.4426316,7.48561404 C29.1666667,7.48561404 28.9436257,7.70918129 28.9436257,7.98461988 L28.9436257,27.4466082 C28.9436257,28.2719883 28.2719298,28.9436842 27.4465497,28.9436842 L15.4699415,28.9436842 L15.4699415,27.7954386 C16.1975439,27.5409357 18.092807,26.9476023 19.9611696,26.9476023 C24.3081871,26.9476023 27.2599415,27.9102339 27.2893567,27.9201754 C27.4395322,27.9700585 27.6072515,27.9451462 27.7384795,27.8512865 C27.8687135,27.7574854 27.9455556,27.6067836 27.9455556,27.4465497 L27.9455556,5.48953216 C27.9455556,5.25549708 27.7833918,5.0528655 27.5547953,5.00245614 C27.5547953,5.00245614 27.1635673,4.9151462 26.4948538,4.79233918 C26.2248538,4.74245614 25.9639181,4.92210526 25.9139766,5.1925731 C25.8640936,5.46403509 26.0432164,5.72403509 26.3142105,5.77391813 C26.5692398,5.82081871 26.782807,5.86222222 26.9474854,5.89520468 L26.9474854,26.7833918 C25.8166667,26.4869591 23.305614,25.9495322 19.9611111,25.9495322 C17.7868421,25.9495322 15.6510526,26.6636257 14.9902924,26.9056725 C14.402924,26.6461988 12.6274269,25.9495322 10.4795906,25.9495322 C7.0422807,25.9495322 4.21081871,26.5164327 2.99421053,26.804386 L2.99421053,5.87573099 C3.99076023,5.63070175 6.93403509,4.99046784 10.4795906,4.99046784 C12.2990643,4.99046784 13.8594737,5.55684211 14.4718129,5.8128655 L14.4718129,25.4505263 C14.4718129,25.6301754 14.5685965,25.7963743 14.7247953,25.8846784 C14.8809942,25.9735088 15.0736257,25.9709942 15.2278363,25.8781871 C15.2772515,25.8487719 20.2215789,22.8954971 24.61,21.4328655 C24.8140936,21.3645029 24.951345,21.174386 24.951345,20.9592982 L24.951345,0.499239766 C24.951345,0.335555556 24.8709942,0.182339181 24.7362573,0.0890643275 C24.6025146,-0.00426900585 24.4308772,-0.0257309942 24.2766667,0.0316959064 C20.2839766,1.52923977 16.2439181,4.04333333 16.2034503,4.06830409 C15.969883,4.21450292 15.898538,4.52239766 16.0447368,4.75596491 C16.1904678,4.98953216 16.4983626,5.06087719 16.7323977,4.91467836 C16.7692982,4.89122807 20.2839766,2.70450292 23.9532749,1.22888889 L23.9532749,20.6020468 C20.5469006,21.785731 16.9903509,23.7184795 15.4698246,24.5837427 L15.4698246,5.48953216 C15.4698246,5.30040936 15.3630409,5.1277193 15.1938596,5.04292398 C15.1080117,5.00052632 13.0630409,3.99245614 10.4795906,3.99245614 C5.97040936,3.99245614 2.50368421,4.96807018 2.35795322,5.00994152 C2.14385965,5.07081871 1.99614035,5.26695906 1.99614035,5.48953216 L1.99614035,27.4466667 C1.99614035,27.6028655 2.07,27.7505848 2.19426901,27.8449123 C2.28210526,27.9112865 2.38789474,27.945731 2.49520468,27.945731 C2.54111111,27.945731 2.58701754,27.9392398 2.63192982,27.9262573 C2.66637427,27.9167836 6.1171345,26.9476608 10.4795906,26.9476608 C12.3040351,26.9476608 13.8629825,27.5155556 14.4718129,27.7705263 L14.4718129,28.9437427 L2.49520468,28.9437427 C1.66982456,28.9437427 0.998128655,28.2720468 0.998128655,27.4466667 L0.998128655,7.98467836 C0.998128655,7.70923977 0.774561404,7.48567251 0.499122807,7.48567251 C0.223684211,7.48567251 0.000116959064,7.70923977 0.000116959064,7.98467836 L0.000116959064,27.4466667 C0.000116959064,28.8224561 1.1194152,29.9418129 2.49526316,29.9418129 L27.4465497,29.9418129 C28.8223392,29.9418129 29.9416959,28.8225146 29.9416959,27.4466667 L29.9416959,7.98467836 C29.9416374,7.70918129 29.7185965,7.48561404 29.4426316,7.48561404 Z" id="Shape"></path>
                    <path d="M17.0208772,11.2053216 C17.1091813,11.3780117 17.2848538,11.4777778 17.4664912,11.4777778 C17.5423392,11.4777778 17.6201754,11.4602924 17.6925731,11.4233918 C17.7219883,11.4084211 20.6592982,9.91631579 22.1079532,9.45871345 C22.3704678,9.37538012 22.5161404,9.09491228 22.432807,8.83245614 C22.3499415,8.56994152 22.0715205,8.42374269 21.8065497,8.50660819 C20.2805263,8.98918129 17.3632164,10.4712865 17.2394737,10.534152 C16.9939181,10.6588889 16.8961404,10.9593567 17.0208772,11.2053216 Z" id="Shape"></path>
                    <path d="M17.0208772,17.1936257 C17.1091813,17.3663158 17.2848538,17.4660819 17.4664912,17.4660819 C17.5423392,17.4660819 17.6201754,17.4485965 17.6925731,17.4116959 C17.7219883,17.3967251 20.6592982,15.9046199 22.1079532,15.4470175 C22.3704678,15.3636842 22.5161404,15.0832164 22.432807,14.8207602 C22.3499415,14.5582456 22.0715205,14.4120468 21.8065497,14.4949123 C20.2805263,14.9774854 17.3632164,16.4595906 17.2394737,16.5224561 C16.9939181,16.647193 16.8961404,16.9476608 17.0208772,17.1936257 Z" id="Shape"></path>
                    <path d="M12.0905263,9.26116959 C9.00906433,8.53807018 5.50736842,9.45929825 5.36017544,9.49871345 C5.09421053,9.57005848 4.93602339,9.84350877 5.00736842,10.11 C5.06725146,10.3330409 5.26883041,10.4797661 5.48894737,10.4797661 C5.53187135,10.4797661 5.57526316,10.474269 5.61871345,10.462807 C5.65216374,10.4533333 9.02356725,9.56654971 11.8630409,10.2327485 C12.13,10.2951462 12.4,10.1289474 12.4628655,9.86046784 C12.5256725,9.59251462 12.3590058,9.32403509 12.0905263,9.26116959 Z" id="Shape"></path>
                    <path d="M12.0905263,12.2553216 C9.00906433,11.5327485 5.50736842,12.4534503 5.36017544,12.4928655 C5.09421053,12.5642105 4.93602339,12.8377193 5.00736842,13.104152 C5.06725146,13.327193 5.26883041,13.4739181 5.48894737,13.4739181 C5.53187135,13.4739181 5.57526316,13.4684211 5.61871345,13.4569591 C5.65216374,13.4474854 9.02356725,12.5607018 11.8630409,13.2269006 C12.13,13.2892982 12.4,13.1230994 12.4628655,12.8546199 C12.5256725,12.5866667 12.3590058,12.3181871 12.0905263,12.2553216 Z" id="Shape"></path>
                    <path d="M17.0208772,20.1877778 C17.1091813,20.3604678 17.2848538,20.4602339 17.4664912,20.4602339 C17.5423392,20.4602339 17.6201754,20.4427485 17.6925731,20.405848 C17.7219883,20.3908772 20.6592982,18.8987719 22.1079532,18.4411696 C22.3704678,18.3578363 22.5161404,18.0773684 22.432807,17.8149123 C22.3499415,17.5524561 22.0715205,17.4061988 21.8065497,17.4890643 C20.2805263,17.9716374 17.3632164,19.4537427 17.2394737,19.5166082 C16.9939181,19.641345 16.8961404,19.9418129 17.0208772,20.1877778 Z" id="Shape"></path>
                    <path d="M12.0905263,15.2494737 C9.00906433,14.5269006 5.50736842,15.447076 5.36017544,15.4870175 C5.09421053,15.5583626 4.93602339,15.8318713 5.00736842,16.0983041 C5.06725146,16.321345 5.26883041,16.4685965 5.48894737,16.4685965 C5.53187135,16.4685965 5.57526316,16.4626316 5.61871345,16.4511111 C5.65216374,16.4416374 9.02356725,15.5548538 11.8630409,16.2210526 C12.13,16.2834503 12.4,16.1172515 12.4628655,15.8487719 C12.5256725,15.5808187 12.3590058,15.3123392 12.0905263,15.2494737 Z" id="Shape"></path>
                    <path d="M12.0905263,21.2377778 C9.00906433,20.5146784 5.50736842,21.4359064 5.36017544,21.4753216 C5.09421053,21.5466667 4.93602339,21.8201754 5.00736842,22.0866082 C5.06725146,22.3096491 5.26883041,22.4569006 5.48894737,22.4569006 C5.53187135,22.4569006 5.57526316,22.4509357 5.61871345,22.4394152 C5.65216374,22.4299415 9.02356725,21.5431579 11.8630409,22.2093567 C12.13,22.2712281 12.4,22.1055556 12.4628655,21.837076 C12.5256725,21.5691228 12.3590058,21.3006433 12.0905263,21.2377778 Z" id="Shape"></path>
                    <path d="M12.0905263,18.2436257 C9.00906433,17.5205263 5.50736842,18.4412281 5.36017544,18.4811696 C5.09421053,18.5525146 4.93602339,18.8260234 5.00736842,19.0924561 C5.06725146,19.3154971 5.26883041,19.4627485 5.48894737,19.4627485 C5.53187135,19.4627485 5.57526316,19.4567836 5.61871345,19.4452632 C5.65216374,19.4357895 9.02356725,18.5490058 11.8630409,19.2152047 C12.13,19.2776023 12.4,19.1114035 12.4628655,18.842924 C12.5256725,18.5749708 12.3590058,18.3064912 12.0905263,18.2436257 Z" id="Shape"></path>
                </g>
            </g>
        </g>
    </g>
</svg>