<?xml version="1.0" encoding="UTF-8" standalone="no"?>
<svg width="30px" height="26px" viewBox="0 0 30 26" version="1.1" xmlns="http://www.w3.org/2000/svg" xmlns:xlink="http://www.w3.org/1999/xlink">
    <!-- Generator: Sketch 50.2 (55047) - http://www.bohemiancoding.com/sketch -->
    <title>book</title>
    <desc>Created with Sketch.</desc>
    <defs></defs>
    <g id="Page-1" stroke="none" stroke-width="1" fill="none" fill-rule="evenodd">
        <g id="website-copy-3" transform="translate(-808.000000, -1314.000000)" fill="#979797" fill-rule="nonzero">
            <g id="Group-17-Copy-5" transform="translate(785.000000, 1282.000000)">
                <g id="book" transform="translate(23.000000, 32.000000)">
                    <path d="M28.6363477,14.3714648 C28.2272461,14.3714648 27.9545508,14.6442188 27.9545508,15.0532617 L27.9545508,23.9169141 C27.9545508,24.3260156 27.6817969,24.5987109 27.2727539,24.5987109 L2.72724609,24.5987109 C2.31814453,24.5987109 2.04544922,24.325957 2.04544922,23.9169141 L2.04544922,15.0532617 C2.04544922,14.6441602 1.77269531,14.3714648 1.36365234,14.3714648 C0.954609375,14.3714648 0.681855469,14.6442187 0.681855469,15.0532617 L0.681855469,23.9169141 C0.681855469,25.0760156 1.56820313,25.9623633 2.72730469,25.9623633 L27.2727539,25.9623633 C28.4318555,25.9623633 29.3182031,25.0760156 29.3182031,23.9169141 L29.3182031,15.0532617 C29.3182031,14.6441602 29.0454492,14.3714648 28.6363477,14.3714648 Z" id="Shape"></path>
                    <path d="M27.9545508,4.82601562 L2.04544922,4.82601562 C0.886347656,4.82601562 0,5.71236328 0,6.87146484 L0,11.2351172 C0,12.1896094 0.681796875,13.0078125 1.56820312,13.2123633 L12.2727539,15.5987109 L12.2727539,17.7805078 C12.2727539,18.1896094 12.5455078,18.4623047 12.9545508,18.4623047 L17.0454492,18.4623047 C17.4545508,18.4623047 17.7272461,18.1895508 17.7272461,17.7805078 L17.7272461,15.5987109 L28.4317969,13.2123633 C29.3182031,13.0078125 30,12.1896094 30,11.2350586 L30,6.87140625 C30,5.71236328 29.1136523,4.82601562 27.9545508,4.82601562 Z M16.3636523,17.0987109 L13.6364063,17.0987109 L13.6364063,14.3714648 L16.3636523,14.3714648 L16.3636523,17.0987109 Z M28.6363477,11.2350586 C28.6363477,11.575957 28.4317969,11.8487109 28.0908984,11.9168555 L17.7272461,14.2350586 L17.7272461,13.6896094 C17.7272461,13.2805078 17.4544922,13.0078125 17.0454492,13.0078125 L12.9545508,13.0078125 C12.5454492,13.0078125 12.2727539,13.2805664 12.2727539,13.6896094 L12.2727539,14.2350586 L1.90910156,11.9169141 C1.56820312,11.8487109 1.36365234,11.5760156 1.36365234,11.2351172 L1.36365234,6.87146484 C1.36365234,6.46236328 1.63640625,6.18966797 2.04544922,6.18966797 L27.9545508,6.18966797 C28.3636523,6.18966797 28.6363477,6.46242188 28.6363477,6.87146484 L28.6363477,11.2350586 Z" id="Shape"></path>
                    <path d="M18.4091016,0.0532617187 L11.5908984,0.0532617187 C10.4317969,0.0532617187 9.54544922,0.939609375 9.54544922,2.09871094 L9.54544922,2.78050781 C9.54544922,3.18960937 9.81820313,3.46230469 10.2272461,3.46230469 C10.6362891,3.46230469 10.909043,3.18955078 10.909043,2.78050781 L10.909043,2.09871094 C10.909043,1.68960937 11.1817969,1.41691406 11.5908398,1.41691406 L18.409043,1.41691406 C18.8181445,1.41691406 19.0908398,1.68966797 19.0908398,2.09871094 L19.0908398,2.78050781 C19.0908398,3.18960937 19.3635938,3.46230469 19.7726367,3.46230469 C20.1817383,3.46230469 20.4544336,3.18955078 20.4544336,2.78050781 L20.4544336,2.09871094 C20.4545508,0.939609375 19.5682031,0.0532617187 18.4091016,0.0532617187 Z" id="Shape"></path>
                </g>
            </g>
        </g>
    </g>
</svg>