<?xml version="1.0" encoding="UTF-8" standalone="no"?>
<svg width="36px" height="17px" viewBox="0 0 36 17" version="1.1" xmlns="http://www.w3.org/2000/svg" xmlns:xlink="http://www.w3.org/1999/xlink">
    <!-- Generator: Sketch 50.2 (55047) - http://www.bohemiancoding.com/sketch -->
    <title>car</title>
    <desc>Created with Sketch.</desc>
    <defs></defs>
    <g id="Page-1" stroke="none" stroke-width="1" fill="none" fill-rule="evenodd">
        <g id="website-copy-3" transform="translate(-476.000000, -4188.000000)" fill="#FFFFFF" fill-rule="nonzero">
            <g id="Our-fun-facts" transform="translate(0.000000, 3880.000000)">
                <g id="Group-6" transform="translate(476.000000, 289.000000)">
                    <g id="car" transform="translate(0.000000, 19.000000)">
                        <path d="M7.79997656,10.5352031 C6.14580469,10.5352031 4.79995313,11.8809844 4.79995313,13.5352266 C4.79995313,15.1893984 6.14573438,16.53525 7.79997656,16.53525 C9.45414844,16.53525 10.8,15.1894688 10.8,13.5352266 C10.8,11.8810547 9.45421875,10.5352031 7.79997656,10.5352031 Z M7.79997656,15.3352266 C6.80758594,15.3352266 5.99997656,14.5276172 5.99997656,13.5352266 C5.99997656,12.5428359 6.80758594,11.7352266 7.79997656,11.7352266 C8.79236719,11.7352266 9.59997656,12.5428359 9.59997656,13.5352266 C9.59997656,14.5276172 8.79236719,15.3352266 7.79997656,15.3352266 Z" id="Shape"></path>
                        <path d="M35.4000234,10.5352031 L35.4000234,6.93520313 C35.4000234,6.67722656 35.235,6.447375 34.9896094,6.3658125 L31.6044141,5.23722656 C30.3294375,3.07785938 28.5768281,1.02283594 24.7038047,0.34425 C24.6966328,0.343054688 24.6893906,0.341859375 24.6822188,0.340664063 C17.5296094,-0.648140625 12.1596328,0.96525 8.712,5.13766406 C6.14580469,5.17485938 3.52617187,5.71127344 1.98541406,6.6976875 C1.1874375,7.20885938 0.714023437,8.09866406 0.669585937,9.04549219 L0.599976562,10.5352734 C0.268804687,10.5352734 0,10.8040781 0,11.13525 L0,13.5352266 C0,13.8663984 0.268804688,14.1352031 0.599976562,14.1352031 L2.99995313,14.1352031 C3.33295313,14.1352031 3.59936719,13.8616172 3.59992969,13.5286172 C3.59992969,13.5255938 3.6005625,13.5226406 3.6005625,13.5189844 C3.6095625,11.2071797 5.48578125,9.33517969 7.79997656,9.33517969 C10.1195859,9.33517969 11.9999531,11.2155469 11.9999531,13.5351563 C11.9567813,13.899375 12.2441484,14.1351328 12.5999297,14.1351328 L23.3999297,14.1351328 C23.7329297,14.1351328 23.9993437,13.8615469 23.9999063,13.5285469 C23.9999063,13.5255234 24.0004687,13.5225703 24.0004687,13.5189141 C24.0094687,11.2071094 25.8856875,9.33510938 28.1998828,9.33510938 C30.5194922,9.33510938 32.3998594,11.2154766 32.3998594,13.5350859 C32.3566875,13.8993047 32.6440547,14.1350625 32.9998359,14.1350625 L35.3998125,14.1350625 C35.7309844,14.1350625 35.9997891,13.8662578 35.9997891,13.5350859 L35.9997891,11.1351094 C36,10.8040078 35.7311953,10.5352031 35.4000234,10.5352031 Z M19.2000234,4.83525 C19.2000234,5.00083594 19.0656562,5.13527344 18.9,5.13527344 L11.0754141,5.13527344 C10.7982422,5.13527344 10.6722422,4.79446875 10.8767812,4.60785937 C12.9588047,2.71005469 15.6065625,1.62464062 18.8694141,1.33607813 C19.0451953,1.32046875 19.2000234,1.46207813 19.2000234,1.63849219 L19.2000234,4.83525 Z M26.4083906,4.83820312 C26.4065625,5.00259375 26.2727578,5.13520312 26.1083672,5.13520312 L20.7,5.13520312 C20.5344141,5.13520312 20.3999766,5.00083594 20.3999766,4.83517969 L20.3999766,1.55917969 C20.3999766,1.39296094 20.5325859,1.25620313 20.6981719,1.25620313 C21.8945391,1.25500781 23.1605859,1.34198438 24.5063672,1.52803125 C25.1471953,1.6408125 25.7183437,1.79564063 26.2379531,1.98583594 C26.3573437,2.02964063 26.4335625,2.14544531 26.4323672,2.27264063 L26.4083906,4.83820312 Z M29.5398281,5.13520313 L27.9084375,5.13520313 C27.7416563,5.13520313 27.6066563,4.99900781 27.6084141,4.83222656 L27.6240234,3.20625 C27.6264141,2.95846875 27.909,2.82403125 28.1088281,2.97042187 C28.7574609,3.44439844 29.2968281,4.00900781 29.7774141,4.64983594 C29.9273906,4.84959375 29.7893672,5.13520313 29.5398281,5.13520313 Z" id="Shape"></path>
                        <path d="M28.1969999,10.5352031 C26.5444952,10.5352031 25.2,11.8809844 25.2,13.5352266 C25.2,15.1893984 26.5444249,16.53525 28.1969999,16.53525 C29.8495047,16.53525 31.1939999,15.1894688 31.1939999,13.5352266 C31.1939296,11.8810547 29.8495047,10.5352031 28.1969999,10.5352031 Z M28.1969999,15.3352266 C27.2056095,15.3352266 26.398814,14.5276172 26.398814,13.5352266 C26.398814,12.5428359 27.2056095,11.7352266 28.1969999,11.7352266 C29.1883904,11.7352266 29.9951858,12.5428359 29.9951858,13.5352266 C29.9951858,14.5276172 29.1883904,15.3352266 28.1969999,15.3352266 Z" id="Shape"></path>
                    </g>
                </g>
            </g>
        </g>
    </g>
</svg>