<?xml version="1.0" encoding="UTF-8" standalone="no"?>
<svg width="35px" height="24px" viewBox="0 0 35 24" version="1.1" xmlns="http://www.w3.org/2000/svg" xmlns:xlink="http://www.w3.org/1999/xlink">
    <!-- Generator: Sketch 50.2 (55047) - http://www.bohemiancoding.com/sketch -->
    <title>Clients-Annually</title>
    <desc>Created with Sketch.</desc>
    <defs></defs>
    <g id="Page-1" stroke="none" stroke-width="1" fill="none" fill-rule="evenodd">
        <g id="website-copy-3" transform="translate(-1025.000000, -4183.000000)" fill="#FFFFFF" fill-rule="nonzero">
            <g id="Our-fun-facts" transform="translate(0.000000, 3880.000000)">
                <g id="Group-8" transform="translate(1025.000000, 289.000000)">
                    <g id="Clients-Annually" transform="translate(0.000000, 14.000000)">
                        <path d="M33.1832594,18.4634701 L31.7304878,18.4634701 L31.7304878,16.1027162 C31.7304878,15.7534922 31.4441242,15.4671286 31.0949002,15.4671286 L24.7320399,15.4671286 L24.7320399,13.8118071 L26.191796,13.8118071 C26.7645233,13.8118071 27.2324834,13.343847 27.2324834,12.7711197 L27.2324834,10.2846452 C27.2324834,9.71191796 26.7645233,9.24395787 26.191796,9.24395787 L24.7390244,9.24395787 L24.7390244,6.88320399 C24.7390244,6.53398004 24.4526608,6.24761641 24.1034368,6.24761641 L17.7405765,6.24761641 L17.7405765,4.57134146 L19.1933481,4.57134146 C19.7660754,4.57134146 20.2340355,4.10338137 20.2340355,3.53763858 L20.2340355,1.05116408 C20.2340355,0.478436807 19.7660754,0.0104767184 19.1933481,0.0104767184 L15.0236142,0.0104767184 C14.4508869,0.0104767184 13.9829268,0.478436807 13.9829268,1.05116408 L13.9829268,3.53763858 C13.9829268,4.11036585 14.4508869,4.57134146 15.0236142,4.57134146 L16.4763858,4.57134146 L16.4763858,6.24761641 L10.1135255,6.24761641 C9.76430155,6.24761641 9.47793792,6.53398004 9.47793792,6.88320399 L9.47793792,9.24395787 L8.03215078,9.24395787 C7.4594235,9.24395787 6.99146341,9.71191796 6.99146341,10.2846452 L6.99146341,12.7781042 C6.99146341,13.3508315 7.4594235,13.8187916 8.03215078,13.8187916 L9.48492239,13.8187916 L9.48492239,15.4741131 L3.12904656,15.4741131 C2.77982262,15.4741131 2.49345898,15.7604767 2.49345898,16.1097007 L2.49345898,18.4704545 L1.04068736,18.4704545 C0.467960089,18.4704545 0,18.9384146 0,19.5111419 L0,21.9976164 C0,22.5703437 0.467960089,23.0383038 1.04068736,23.0383038 L5.21042129,23.0383038 C5.78314856,23.0383038 6.25110865,22.5703437 6.25110865,21.9976164 L6.25110865,19.5111419 C6.25110865,18.9384146 5.78314856,18.4704545 5.21042129,18.4704545 L3.75764967,18.4704545 L3.75764967,16.7383038 L9.48492239,16.7383038 L9.48492239,18.4704545 L8.03215078,18.4704545 C7.4594235,18.4704545 6.99146341,18.9384146 6.99146341,19.5111419 L6.99146341,21.9976164 C6.99146341,22.5703437 7.4594235,23.0383038 8.03215078,23.0383038 L12.2018847,23.0383038 C12.774612,23.0383038 13.2425721,22.5703437 13.2425721,21.9976164 L13.2425721,19.5111419 C13.2425721,18.9384146 12.774612,18.4704545 12.2018847,18.4704545 L10.7491131,18.4704545 L10.7491131,13.8187916 L12.2018847,13.8187916 C12.774612,13.8187916 13.2425721,13.3508315 13.2425721,12.7781042 L13.2425721,10.2916297 C13.2425721,9.71890244 12.774612,9.25094235 12.2018847,9.25094235 L10.7491131,9.25094235 L10.7491131,7.51879157 L16.4763858,7.51879157 L16.4763858,9.25094235 L15.0236142,9.25094235 C14.4508869,9.25094235 13.9829268,9.71890244 13.9829268,10.2916297 L13.9829268,12.7781042 C13.9829268,13.3508315 14.4508869,13.8187916 15.0236142,13.8187916 L19.1933481,13.8187916 C19.7660754,13.8187916 20.2340355,13.3508315 20.2340355,12.7781042 L20.2340355,10.2916297 C20.2340355,9.71890244 19.7660754,9.25094235 19.1933481,9.25094235 L17.7405765,9.25094235 L17.7405765,7.51879157 L23.4678492,7.51879157 L23.4678492,9.25094235 L22.0150776,9.25094235 C21.4423503,9.25094235 20.9743902,9.71890244 20.9743902,10.2916297 L20.9743902,12.7781042 C20.9743902,13.3508315 21.4423503,13.8187916 22.0150776,13.8187916 L23.4678492,13.8187916 L23.4678492,15.4741131 L17.1119734,15.4741131 C16.7627494,15.4741131 16.4763858,15.7604767 16.4763858,16.1097007 L16.4763858,18.4704545 L15.0236142,18.4704545 C14.4508869,18.4704545 13.9829268,18.9384146 13.9829268,19.5111419 L13.9829268,21.9976164 C13.9829268,22.5703437 14.4508869,23.0383038 15.0236142,23.0383038 L19.1933481,23.0383038 C19.7660754,23.0383038 20.2340355,22.5703437 20.2340355,21.9976164 L20.2340355,19.5111419 C20.2340355,18.9384146 19.7660754,18.4704545 19.1933481,18.4704545 L17.7405765,18.4704545 L17.7405765,16.7383038 L23.4678492,16.7383038 L23.4678492,18.4704545 L22.0150776,18.4704545 C21.4423503,18.4704545 20.9743902,18.9384146 20.9743902,19.5111419 L20.9743902,21.9976164 C20.9743902,22.5703437 21.4423503,23.0383038 22.0150776,23.0383038 L26.191796,23.0383038 C26.7645233,23.0383038 27.2324834,22.5703437 27.2324834,21.9976164 L27.2324834,19.5111419 C27.2324834,18.9384146 26.7645233,18.4704545 26.191796,18.4704545 L24.7390244,18.4704545 L24.7390244,16.7383038 L30.4662971,16.7383038 L30.4662971,18.4704545 L29.0135255,18.4704545 C28.4407982,18.4704545 27.9728381,18.9384146 27.9728381,19.5111419 L27.9728381,21.9976164 C27.9728381,22.5703437 28.4407982,23.0383038 29.0135255,23.0383038 L33.1832594,23.0383038 C33.7559867,23.0383038 34.2239468,22.5703437 34.2239468,21.9976164 L34.2239468,19.5111419 C34.2169623,18.9314302 33.7559867,18.4634701 33.1832594,18.4634701 Z M15.254102,1.28165188 L18.9628603,1.28165188 L18.9628603,3.30715078 L15.254102,3.30715078 L15.254102,1.28165188 Z M4.97993348,21.7601441 L1.27117517,21.7601441 L1.27117517,19.7346452 L4.97993348,19.7346452 L4.97993348,21.7601441 Z M11.9713969,21.7601441 L8.26263858,21.7601441 L8.26263858,19.7346452 L11.9713969,19.7346452 L11.9713969,21.7601441 Z M11.9713969,12.5476164 L8.26263858,12.5476164 L8.26263858,10.5221175 L11.9713969,10.5221175 L11.9713969,12.5476164 Z M18.9698448,12.5476164 L15.2610865,12.5476164 L15.2610865,10.5221175 L18.9698448,10.5221175 L18.9698448,12.5476164 Z M22.2525499,10.5221175 L25.9613082,10.5221175 L25.9613082,12.5476164 L22.2525499,12.5476164 L22.2525499,10.5221175 Z M18.9698448,21.7601441 L15.2610865,21.7601441 L15.2610865,19.7346452 L18.9698448,19.7346452 L18.9698448,21.7601441 Z M25.9613082,21.7601441 L22.2525499,21.7601441 L22.2525499,19.7346452 L25.9613082,19.7346452 L25.9613082,21.7601441 Z M32.9527716,21.7601441 L29.2440133,21.7601441 L29.2440133,19.7346452 L32.9527716,19.7346452 L32.9527716,21.7601441 Z" id="Shape"></path>
                    </g>
                </g>
            </g>
        </g>
    </g>
</svg>