<?xml version="1.0" encoding="UTF-8" standalone="no"?>
<svg width="30px" height="31px" viewBox="0 0 30 31" version="1.1" xmlns="http://www.w3.org/2000/svg" xmlns:xlink="http://www.w3.org/1999/xlink">
    <!-- Generator: Sketch 50.2 (55047) - http://www.bohemiancoding.com/sketch -->
    <title>driver-app-manage</title>
    <desc>Created with Sketch.</desc>
    <defs></defs>
    <g id="Page-1" stroke="none" stroke-width="1" fill="none" fill-rule="evenodd">
        <g id="website-copy-3" transform="translate(-808.000000, -1732.000000)" fill="#979797" fill-rule="nonzero">
            <g id="Group-17-Copy-11" transform="translate(785.000000, 1702.000000)">
                <g id="driver-app-manage" transform="translate(23.000000, 30.000000)">
                    <path d="M12.65762,5.43745303 L11.7832359,5.05183716 C11.7435908,4.90503132 11.7005637,4.76605428 11.6525887,4.63202505 L12.138476,3.79534447 C12.2270355,3.6423382 12.2285386,3.45407098 12.1424217,3.29968685 C11.903048,2.87235908 11.6172025,2.47277662 11.2900835,2.10820459 C11.1688309,1.97160752 10.9825052,1.91248434 10.8046973,1.95407098 L9.88484342,2.16450939 C9.77768267,2.07889353 9.66582463,1.99634656 9.54920668,1.91693111 L9.46014614,0.943215031 C9.44361169,0.765281837 9.33363257,0.609645094 9.17148225,0.534676409 C8.73300626,0.329311065 8.27254697,0.174676409 7.79899791,0.0737787056 C7.62037578,0.0357620042 7.43530271,0.0984551148 7.31655532,0.237181628 L6.6745929,0.982421712 L6.28903967,0.982421712 L5.64695198,0.237118998 C5.52832985,0.0982672234 5.34313152,0.0355114823 5.16450939,0.0737160752 C4.69096033,0.174676409 4.23050104,0.329311065 3.79202505,0.534613779 C3.62968685,0.609707724 3.51970772,0.76559499 3.50336117,0.943653445 L3.41430063,1.91686848 C3.29830898,1.99615866 3.18582463,2.0788309 3.07866388,2.16444676 L2.15868476,1.95407098 C1.98087683,1.91235908 1.79448852,1.97154489 1.67329854,2.10820459 C1.34611691,2.47271399 1.0602714,2.87229645 0.820960334,3.29968685 C0.734843424,3.45407098 0.736346555,3.6423382 0.824906054,3.79534447 L1.31079332,4.63202505 C1.26281837,4.76611691 1.21979123,4.90503132 1.18014614,5.05183716 L0.305699374,5.4373904 C0.124196242,5.51762004 0.00713987474,5.69736952 0.00720250522,5.89584551 L0.00720250522,7.25705637 C0.00707724426,7.45553236 0.124133612,7.63528184 0.305699374,7.71551148 L1.18008351,8.10112735 C1.2197286,8.24793319 1.26275574,8.38691023 1.31073069,8.52093946 L0.824843424,9.35762004 C0.736283925,9.5106263 0.734780793,9.69889353 0.820897704,9.85327766 C1.0602714,10.2806054 1.34611691,10.6801879 1.67323591,11.0447599 C1.79467641,11.1810438 1.9808142,11.240167 2.15862213,11.1988935 L3.07847599,10.9884551 C3.18563674,11.074071 3.29749478,11.156618 3.41411273,11.2360334 L3.50317328,12.2097495 C3.51970772,12.3876827 3.62968685,12.5433194 3.79183716,12.6182881 C4.23031315,12.8236534 4.69077244,12.9782881 5.1643215,13.0791858 C5.34294363,13.116952 5.52789144,13.0543215 5.64676409,12.9157829 L6.28872651,12.1706054 L6.67427975,12.1706054 L7.31624217,12.9157829 C7.41137787,13.0264509 7.55004175,13.0900835 7.69597077,13.0899582 C7.73048017,13.0900209 7.76492693,13.0863883 7.79874739,13.0791858 C8.27229645,12.9782255 8.73275574,12.8235908 9.17123173,12.6182881 C9.33356994,12.5431942 9.44354906,12.3873069 9.45989562,12.2092484 L9.54895616,11.2360334 C9.66494781,11.1567432 9.77743215,11.074071 9.8845929,10.9884551 L10.8045094,11.1988309 C10.9823173,11.2402923 11.1685804,11.1811065 11.2898956,11.0446973 C11.6170772,10.6801879 11.9029228,10.2806054 12.1422338,9.85321503 C12.2283507,9.6988309 12.2268476,9.51056367 12.1382881,9.35755741 L11.6524008,8.52087683 C11.7003758,8.38678497 11.7434029,8.24787056 11.783048,8.10106472 L12.6574322,7.71551148 C12.8389353,7.63528184 12.9559916,7.45553236 12.955929,7.25705637 L12.955929,5.89590814 C12.9561795,5.69743215 12.8391232,5.51762004 12.65762,5.43745303 Z M11.9540919,6.93075157 L11.1541127,7.28354906 C11.0096242,7.34755741 10.9037161,7.4759499 10.8683299,7.62995825 C10.8121503,7.88379958 10.7345511,8.13244259 10.6364092,8.37319415 C10.5766597,8.51749478 10.5874948,8.68133612 10.6657829,8.81649269 L11.124238,9.60670146 C11.0045511,9.79678497 10.8736534,9.97960334 10.7322965,10.1542171 L9.86624217,9.95605428 C9.70878914,9.9191023 9.54325678,9.96106472 9.42244259,10.0686013 C9.23060543,10.2370146 9.02505219,10.3890814 8.80784969,10.5231733 C8.67419624,10.6059708 8.58720251,10.7467641 8.57298539,10.9033403 L8.48881002,11.8227557 C8.2888309,11.9039248 8.08427975,11.973382 7.87622129,12.0306889 L7.28367432,11.3427557 C7.18847599,11.2322129 7.04987474,11.168643 6.90394572,11.1685804 L6.0593737,11.1685804 C5.91350731,11.168643 5.77490605,11.2322129 5.67964509,11.3427557 L5.08709812,12.0306889 C4.87885177,11.973382 4.67417537,11.9039248 4.47400835,11.8227557 L4.38983299,10.9024008 C4.37530271,10.7460752 4.28837161,10.6055324 4.15496868,10.5227349 C3.93782881,10.3890188 3.73240084,10.2370772 3.54087683,10.0686639 C3.42006263,9.96118998 3.25453027,9.91922756 3.09707724,9.95611691 L2.23102296,10.1542797 C2.08966597,9.97966597 1.9588309,9.7968476 1.83908142,9.60676409 L2.29753653,8.81655532 C2.375762,8.68139875 2.38665971,8.51755741 2.32691023,8.37325678 C2.22876827,8.13250522 2.1511691,7.88386221 2.09498956,7.63002088 C2.05960334,7.47601253 1.95375783,7.34762004 1.80920668,7.28361169 L1.00922756,6.9308142 L1.00922756,6.22227557 L1.80926931,5.86947808 C1.95375783,5.80546973 2.05966597,5.67707724 2.09505219,5.52306889 C2.15123173,5.26922756 2.2288309,5.02058455 2.32697286,4.77983299 C2.38672234,4.63553236 2.37588727,4.47169102 2.29759916,4.33653445 L1.83914405,3.54632568 C1.9588309,3.35624217 2.08966597,3.1734238 2.23102296,2.99881002 L3.09707724,3.19697286 C3.25453027,3.23361169 3.41993737,3.19164927 3.54087683,3.08442589 C3.73271399,2.91601253 3.93826722,2.76394572 4.15546973,2.62985386 C4.28912317,2.54705637 4.37611691,2.40626305 4.39033403,2.24968685 L4.47450939,1.3302714 C4.67448852,1.2491023 4.87903967,1.17964509 5.08709812,1.1223382 L5.67964509,1.8102714 C5.77484342,1.9208142 5.91344468,1.98438413 6.0593737,1.98444676 L6.90388309,1.98444676 C7.04974948,1.98438413 7.18835073,1.92075157 7.28361169,1.8102714 L7.87615866,1.1223382 C8.08440501,1.17964509 8.28908142,1.2491023 8.48924843,1.3302714 L8.5734238,2.2506263 C8.58795407,2.40695198 8.67488518,2.54749478 8.8082881,2.63029228 C9.02542797,2.76400835 9.23085595,2.9159499 9.42237996,3.08436326 C9.54325678,3.19164927 9.70872651,3.23361169 9.86617954,3.19691023 L10.7322338,2.99874739 C10.8735908,3.17336117 11.0044885,3.35617954 11.1241754,3.54626305 L10.6657203,4.33647182 C10.5874948,4.47162839 10.5765971,4.63546973 10.6363466,4.77977035 C10.7344885,5.02052192 10.8120877,5.26916493 10.8682672,5.52300626 C10.9036534,5.67701461 11.009499,5.8054071 11.1540501,5.86941545 L11.9540292,6.22221294 L11.9540292,6.93075157 L11.9540919,6.93075157 Z" id="Shape"></path>
                    <path d="M6.48169102,3.06920668 C4.54465553,3.06920668 2.97438413,4.63947808 2.97438413,6.57651357 C2.97670146,8.51254697 4.54565762,10.0815031 6.48169102,10.0838205 C8.41872651,10.0838205 9.98899791,8.51354906 9.98899791,6.57651357 C9.98899791,4.63947808 8.41872651,3.06920668 6.48169102,3.06920668 Z M6.48169102,9.08173278 C5.09812109,9.08173278 3.97647182,7.96008351 3.97647182,6.57651357 C3.97810021,5.19356994 5.09874739,4.07292276 6.48169102,4.07129436 C7.86526096,4.07129436 8.98691023,5.19294363 8.98691023,6.57651357 C8.98691023,7.96008351 7.86526096,9.08173278 6.48169102,9.08173278 Z" id="Shape"></path>
                    <path d="M29.699499,4.54885177 L29.00762,4.24352818 C28.9806889,4.14663883 28.9513779,4.0536952 28.9200626,3.96313152 L29.3056159,3.29868476 C29.3941754,3.14549061 29.3956785,2.95709812 29.3095616,2.8025261 C29.1067015,2.44133612 28.8648852,2.10350731 28.588309,1.79505219 C28.467119,1.65870564 28.2811065,1.59951983 28.1034238,1.64091858 L27.3753445,1.80726514 C27.3038831,1.75146138 27.2304802,1.69734864 27.1551357,1.64480167 L27.0846764,0.872693111 C27.0685177,0.694572025 26.958476,0.538559499 26.7960125,0.463653445 C26.4246138,0.290167015 26.0348017,0.159331942 25.633904,0.0736534447 C25.4552818,0.0355114823 25.2700835,0.0982045929 25.1514614,0.237056367 L24.6415866,0.829102296 L24.396952,0.829102296 L23.8870772,0.237056367 C23.7685177,0.0980793319 23.5832568,0.0353235908 23.4046347,0.0736534447 C23.0037996,0.159331942 22.6139248,0.290104384 22.2425261,0.463653445 C22.0800626,0.538559499 21.9700209,0.694572025 21.9538622,0.872693111 L21.8834029,1.64480167 C21.8080585,1.69716075 21.7346555,1.75133612 21.6631942,1.80726514 L20.9351148,1.64091858 C20.7574322,1.59977035 20.5715449,1.65889353 20.4502296,1.79505219 C20.1735908,2.10344468 19.9318998,2.44152401 19.7294781,2.80302714 C19.6433612,2.95741127 19.6448017,3.1456785 19.7333612,3.29868476 L20.118476,3.96263048 C20.0871608,4.05313152 20.0579749,4.14676409 20.0309186,4.24346555 L19.3390397,4.54885177 C19.157286,4.6288309 19.0399791,4.80870564 19.0401044,5.00730689 L19.0401044,6.14148225 C19.0399791,6.34008351 19.157286,6.51995825 19.3390397,6.59993737 L20.0309186,6.90526096 C20.0578497,7.00215031 20.0871608,7.09509395 20.118476,7.18565762 L19.7329228,7.85016701 C19.6443633,8.00336117 19.6428601,8.19175365 19.728977,8.34632568 C19.9317745,8.70751566 20.1736534,9.04534447 20.4502296,9.35379958 C20.5715449,9.49020877 20.7578079,9.54939457 20.9356159,9.50793319 L21.6626931,9.34108559 C21.7341545,9.39732777 21.8079958,9.45169102 21.8833403,9.5040501 L21.9537996,10.2761587 C21.9699582,10.4543424 22.0800626,10.6102923 22.2424635,10.6851983 C22.6138622,10.8586848 23.0036743,10.9895198 23.404572,11.0751983 C23.5831942,11.1130271 23.7682046,11.0503967 23.8870146,10.9117954 L24.3968894,10.3197495 L24.641524,10.3197495 L25.1513987,10.9117954 C25.2465344,11.0224635 25.3851983,11.086096 25.5311273,11.0859708 C25.5656367,11.0860334 25.6000835,11.0824008 25.633904,11.0751983 C26.0348017,10.9895198 26.4246138,10.8587474 26.7960125,10.6851983 C26.958476,10.6102923 27.0685177,10.4542797 27.0846764,10.2761587 L27.1551357,9.5040501 C27.2304802,9.45169102 27.3038831,9.39751566 27.3753445,9.34158664 L28.1034238,9.50793319 C28.2811065,9.54914405 28.4670564,9.49002088 28.588309,9.35379958 C28.8648225,9.0454071 29.1067015,8.70751566 29.3095616,8.34632568 C29.3956785,8.19175365 29.3941754,8.00336117 29.3056159,7.85016701 L28.9200626,7.18572025 C28.9513779,7.09521921 28.9807516,7.00221294 29.00762,6.90532359 L29.699499,6.6 C29.8812526,6.52002088 29.9985595,6.34014614 29.9984342,6.14154489 L29.9984342,5.00730689 C29.9985595,4.80870564 29.8812526,4.6288309 29.699499,4.54885177 Z M28.9963466,5.81517745 L28.3793111,6.08724426 C28.2341336,6.15106472 28.1279123,6.27995825 28.0930898,6.43465553 C28.0473069,6.64108559 27.9841127,6.84319415 27.9041962,7.03891441 C27.8444468,7.18334029 27.8552818,7.34736952 27.9335699,7.48271399 L28.2902505,8.09730689 C28.2095198,8.22256785 28.1224008,8.34457203 28.0289562,8.46331942 L27.35762,8.30968685 C27.2004802,8.27292276 27.0353236,8.31488518 26.9148225,8.42223382 C26.7587474,8.55914405 26.591524,8.68271399 26.4147808,8.79162839 C26.2807516,8.87442589 26.193382,9.0154071 26.1789144,9.17229645 L26.1138413,9.8876618 C25.9793111,9.94052192 25.8442171,9.98649269 25.7096868,10.0246973 L25.2507307,9.49183716 C25.1555324,9.38129436 25.0169311,9.31772443 24.8710647,9.3176618 L24.1674739,9.3176618 C24.0216075,9.31772443 23.8830063,9.38135699 23.7878079,9.49183716 L23.3288518,10.0246973 C23.1943215,9.98655532 23.0592276,9.94052192 22.9246973,9.8876618 L22.8596242,9.17229645 C22.8451566,9.0154071 22.7578497,8.87442589 22.6237578,8.79162839 C22.4470772,8.68283925 22.2799791,8.55920668 22.1241545,8.42223382 C22.0028392,8.31563674 21.8378706,8.27361169 21.6803549,8.3091858 L21.0095198,8.46281837 C20.9160752,8.34488518 20.8289562,8.22256785 20.7482255,8.09730689 L21.1049061,7.48271399 C21.1831315,7.34736952 21.1940292,7.18334029 21.1342797,7.03891441 C21.0543633,6.84319415 20.9911691,6.64102296 20.9453862,6.43465553 C20.910501,6.27995825 20.8042797,6.15106472 20.6591649,6.08724426 L20.0421294,5.81517745 L20.0421294,5.33373695 L20.6591649,5.06167015 C20.8043424,4.99784969 20.9105637,4.86895616 20.9453862,4.71425887 C20.9912317,4.50757829 21.0544259,4.30509395 21.1342797,4.10899791 C21.1940292,3.96469729 21.1831942,3.80085595 21.1049061,3.66569937 L20.7486639,3.05110647 C20.8288935,2.92634656 20.9160125,2.80402923 21.0094572,2.68559499 L21.6807933,2.83922756 C21.8379332,2.87555324 22.0029019,2.83365344 22.1235908,2.72668058 C22.279666,2.58977035 22.4468894,2.46620042 22.6236326,2.35728601 C22.7576618,2.27448852 22.8450313,2.13350731 22.859499,1.97661795 L22.924572,1.26125261 C23.0591023,1.20839248 23.1941962,1.16242171 23.3287265,1.12421712 L23.7876827,1.65707724 C23.882881,1.76762004 24.0214823,1.83118998 24.1674113,1.83125261 L24.8710021,1.83125261 C25.0168685,1.83118998 25.1555324,1.76762004 25.2507307,1.65707724 L25.7096868,1.12421712 C25.8442171,1.16235908 25.9793111,1.20839248 26.1138413,1.26125261 L26.1789144,1.97661795 C26.193382,2.13350731 26.2806889,2.27448852 26.4147808,2.35728601 C26.591524,2.46620042 26.7587474,2.58977035 26.9148225,2.72668058 C27.0354489,2.83377871 27.2005428,2.87574113 27.35762,2.83922756 L28.0289562,2.68559499 C28.1224008,2.80402923 28.2095198,2.92597077 28.2902505,3.05160752 L27.9335699,3.66620042 C27.8553445,3.80154489 27.8444468,3.96557411 27.9041962,4.11 C27.9841127,4.30572025 28.0473069,4.50789144 28.0930898,4.71425887 C28.1279749,4.86895616 28.2341962,4.99784969 28.3793111,5.06167015 L28.9963466,5.33373695 L28.9963466,5.81517745 Z" id="Shape"></path>
                    <path d="M24.5192693,3.06920668 C23.1356994,3.06920668 22.0140501,4.19085595 22.0140501,5.57442589 C22.0156785,6.95736952 23.1363257,8.0780167 24.5192693,8.07964509 C25.9028392,8.07964509 27.0244885,6.95799582 27.0244885,5.57442589 C27.0244885,4.19085595 25.9028392,3.06920668 24.5192693,3.06920668 Z M24.5192693,7.07755741 C23.6891023,7.07755741 23.0161378,6.4045929 23.0161378,5.57442589 C23.0170146,4.74463466 23.6894781,4.07217119 24.5192693,4.07129436 C25.3494363,4.07129436 26.0224008,4.74425887 26.0224008,5.57442589 C26.0224008,6.4045929 25.3493737,7.07755741 24.5192693,7.07755741 Z" id="Shape"></path>
                    <path d="M29.5756785,21.2653027 L28.8495407,21.1126096 C28.819666,20.9868476 28.7859081,20.8610856 28.7482672,20.7363257 L29.3051148,20.2372234 C29.4650104,20.0941127 29.5159916,19.8650731 29.4318163,19.6676618 C29.1901253,19.1067432 28.8810438,18.5773904 28.5114614,18.0911273 C28.3820668,17.9201461 28.1585386,17.85 27.9546138,17.9164509 L27.254405,18.1464301 C27.1653445,18.0519833 27.0729019,17.9595407 26.9784551,17.8704802 L27.2084342,17.1707724 C27.2753862,16.9671608 27.2053653,16.7435073 27.0342589,16.6144259 C26.5480585,16.2442171 26.0185177,15.9347599 25.4572234,15.6930689 C25.2597495,15.6097704 25.0312109,15.6606263 24.8876618,15.8197704 L24.3885595,16.3770564 C24.2637996,16.3389144 24.1380376,16.3051566 24.0122756,16.2752818 L23.8595825,15.5491441 C23.8107307,15.3173486 23.6062422,15.1513779 23.3693111,15.1513152 L21.6607516,15.1513152 C21.4238205,15.1513779 21.2193319,15.317286 21.1704802,15.5491441 L21.0177871,16.2752818 C20.8920251,16.3051566 20.766263,16.3389144 20.6415031,16.3765553 L20.1424008,15.8197077 C19.9989144,15.660501 19.7703132,15.6096451 19.5728392,15.6930063 C19.0119207,15.9346973 18.4825678,16.2437787 17.9963048,16.6133612 C17.8248852,16.7424426 17.7546764,16.9662839 17.8216284,17.1702088 L18.0516075,17.8704175 C17.9571608,17.9594781 17.8647182,18.0519207 17.7756576,18.1463674 L17.0759499,17.9163883 C16.8723382,17.8504384 16.6492484,17.9202714 16.5196033,18.0905637 C16.1493946,18.5767641 15.8399374,19.1063048 15.5982463,19.6675992 C15.514071,19.8650104 15.5650522,20.0940501 15.7249478,20.2371608 L16.2822338,20.736263 C16.2440919,20.861023 16.210334,20.986785 16.1804593,21.112547 L15.4543215,21.2652401 C15.2225261,21.3140919 15.0565553,21.5185804 15.0564927,21.7555115 L15.0564927,23.4641336 C15.0565553,23.7010647 15.2224635,23.9055532 15.4543215,23.954405 L16.1804593,24.1070981 C16.210334,24.2328601 16.2440919,24.3586221 16.2817328,24.483382 L15.7248852,24.9824843 C15.5649896,25.125595 15.5140084,25.3546347 15.5981837,25.5520459 C15.8398747,26.1129645 16.1489562,26.6423173 16.5185386,27.1285804 C16.6479332,27.2995616 16.8714614,27.3697077 17.0753862,27.3032568 L17.775595,27.0732777 C17.8646555,27.1677244 17.9570981,27.260167 18.0515449,27.3492276 L17.8215658,28.0489353 C17.7546138,28.252547 17.8246347,28.4762004 17.9957411,28.6052818 C18.4819415,28.9754906 19.0114823,29.2849478 19.5727766,29.5266388 C19.7701253,29.6112526 19.9994781,29.5602088 20.1423382,29.3999374 L20.6414405,28.8426514 C20.7662004,28.8807933 20.8919624,28.9145511 21.0177244,28.9444259 L21.1704175,29.6705637 C21.2192693,29.9023591 21.4237578,30.0683299 21.6606889,30.0683925 L23.3693111,30.0683925 C23.6062422,30.0683299 23.8107307,29.9024217 23.8595825,29.6705637 L24.0122756,28.9444259 C24.1380376,28.9145511 24.2637996,28.8807933 24.3885595,28.8431524 L24.8876618,29.4 C25.0305219,29.5602714 25.2598747,29.6112526 25.4572234,29.5267015 C26.018142,29.2850104 26.5474948,28.975929 27.0337578,28.6063466 C27.2051775,28.4772651 27.2753862,28.2533612 27.2084342,28.049499 L26.9784551,27.3492902 C27.0729019,27.2602296 27.1653445,27.1677871 27.254405,27.0733403 L27.9541127,27.3033194 C28.1577244,27.3697704 28.3810647,27.2998121 28.5104593,27.1291441 C28.8806681,26.6429436 29.1901253,26.1134029 29.4318163,25.5521086 C29.5159916,25.3546973 29.4650104,25.1256576 29.3051148,24.982547 L28.7478288,24.4834447 C28.7859708,24.3586848 28.8197286,24.2329228 28.8496033,24.1071608 L29.5757411,23.9544676 C29.8075365,23.9056159 29.9735073,23.7011273 29.9735699,23.4641962 L29.9735699,21.7555741 C29.9734447,21.5187056 29.8075365,21.3141545 29.5756785,21.2653027 Z M28.971357,23.0575992 L28.3230689,23.1941336 C28.1235282,23.236096 27.9693319,23.394739 27.9330689,23.5953445 C27.8789562,23.8925261 27.8002296,24.1846347 27.6977035,24.4687891 C27.6286848,24.6608142 27.6831106,24.8754489 27.8351775,25.0114196 L28.3607098,25.4821503 C28.23,25.7431942 28.0820668,25.9952818 27.9179123,26.2366597 L27.2559081,26.0188935 C27.0619415,25.9555741 26.8489353,26.0156994 26.7167223,26.1710856 C26.52119,26.4022547 26.3068058,26.6168267 26.075762,26.812547 C25.920501,26.9446973 25.8605637,27.1575783 25.924071,27.3512944 L26.1418372,28.0127975 C25.9004593,28.1770772 25.6484342,28.3250104 25.3873278,28.455595 L24.9161587,27.9300626 C24.7796868,27.7784342 24.5651775,27.7241336 24.3730271,27.7925887 C24.0893111,27.8953027 23.797453,27.9740292 23.5005846,28.0279541 C23.2999791,28.0642171 23.1412735,28.2184134 23.0993737,28.4179541 L22.9628392,29.0663048 L22.0674113,29.0663048 L21.9308768,28.4179541 C21.8889144,28.2184134 21.7302714,28.0642171 21.529666,28.0279541 C21.2324843,27.9738413 20.9403758,27.8951148 20.6562213,27.7925887 L20.6562839,27.7925887 C20.4642589,27.7246973 20.2501879,27.7789353 20.1136534,27.9300626 L19.6429228,28.455595 C19.3818789,28.3248852 19.1297912,28.176952 18.8884134,28.0127975 L19.1061795,27.3507933 C19.1698121,27.1568267 19.1096242,26.9436326 18.9539875,26.8116075 C18.7228184,26.6160752 18.5082463,26.401691 18.3125261,26.1706472 C18.1801879,26.0156994 17.9675574,25.9558246 17.7737787,26.0189562 L17.1122129,26.2367223 C16.9479332,25.9953445 16.8,25.7433194 16.6694154,25.4822129 L17.1949478,25.0110438 C17.3470772,24.8748852 17.4014405,24.6600626 17.3324217,24.4679123 C17.2297077,24.1841962 17.1509812,23.8923382 17.0970564,23.5954697 C17.0607933,23.3948643 16.9065971,23.2361587 16.7070564,23.1942589 L16.0587056,23.0577244 L16.0587056,22.1622965 L16.7070564,22.025762 C16.9065971,21.9837996 17.0607933,21.8251566 17.0970564,21.6245511 C17.1511691,21.3273695 17.2298956,21.035261 17.3324217,20.7511065 C17.4014405,20.5590814 17.3470146,20.3444468 17.1949478,20.208476 L16.6694154,19.7378079 C16.8001253,19.4767641 16.9480585,19.2246764 17.1122129,18.9832985 L17.7742171,19.2010647 C17.9681837,19.2643841 18.18119,19.2042589 18.3134029,19.0488727 C18.5089353,18.8177035 18.7233194,18.6031315 18.9543633,18.4074113 C19.1096242,18.275261 19.1695616,18.06238 19.1060543,17.8686639 L18.8882881,17.2071608 C19.129666,17.042881 19.381691,16.8949478 19.6427975,16.7643633 L20.1139666,17.2898956 C20.2503132,17.4417119 20.4649478,17.4960125 20.6570981,17.4273695 C20.9408142,17.3246555 21.2326722,17.245929 21.5295407,17.1920042 C21.7301461,17.1557411 21.8888518,17.0015449 21.9307516,16.8020042 L22.067286,16.1536534 L22.962714,16.1536534 L23.0992484,16.8020042 C23.1412109,17.0015449 23.2998539,17.1557411 23.5004593,17.1920042 C23.7976409,17.2461169 24.0897495,17.3248434 24.3738413,17.4273695 C24.5658664,17.4961378 24.7803758,17.4417745 24.9164718,17.2898956 L25.3872025,16.7643633 C25.6482463,16.8950731 25.900334,17.0430063 26.1417119,17.2071608 L25.9239457,17.8691649 C25.8603132,18.0631315 25.920501,18.2763257 26.0761378,18.4083507 C26.3073069,18.6038831 26.5218789,18.8182672 26.7175992,19.0493111 C26.8501879,19.2037578 27.0625678,19.2635699 27.2563466,19.2010021 L27.9178497,18.9832359 C28.0821294,19.2246138 28.2300626,19.4766388 28.3606472,19.7377453 L27.8351148,20.2089144 C27.6829854,20.3450731 27.6286221,20.5598956 27.6976409,20.7520459 C27.8003549,21.035762 27.8790814,21.32762 27.9330063,21.6244885 C27.9692693,21.8250939 28.1234656,21.9837996 28.3230063,22.0256994 L28.971357,22.1622338 L28.971357,23.0575992 Z" id="Shape"></path>
                    <path d="M22.5150939,18.1005219 C20.0246555,18.1005219 18.0056994,20.1194154 18.0056994,22.6099165 C18.0056994,25.1003549 20.0246555,27.1193111 22.5150939,27.1193111 C25.0044676,27.116618 27.0217954,25.0992902 27.0244885,22.6099165 C27.0244885,20.1194154 25.0055324,18.1005219 22.5150939,18.1005219 Z M22.5150939,26.1172234 C20.5790605,26.1149061 19.0101044,24.5459499 19.0077871,22.6099165 C19.0077871,20.672881 20.5780585,19.1026096 22.5150939,19.1026096 C24.4521294,19.1026096 26.0224008,20.672881 26.0224008,22.6099165 C26.0224008,24.546952 24.4521294,26.1172234 22.5150939,26.1172234 Z" id="Shape"></path>
                    <rect id="Rectangle-path" x="13.9973486" y="5.57442589" width="4.00835073" height="1.00208768"></rect>
                    <path d="M13.9570146,21.9119624 C13.9063466,21.7934656 13.8119624,21.6990814 13.6934656,21.6484134 L10.1861587,20.1452818 C9.93206681,20.0361795 9.63764092,20.153737 9.52853862,20.4078288 C9.50173278,20.470334 9.48789144,20.5376618 9.48795407,20.6056785 L9.48795407,21.6077662 L3.47542797,21.6077662 L3.47542797,13.5910647 L2.47334017,13.5910647 L2.47334029,22.10881 C2.4731524,22.3853862 2.69724426,22.609666 2.97382046,22.6098539 C2.97400835,22.6098539 2.97419624,22.6098539 2.97438413,22.6098539 L9.48795407,22.6098539 L9.48795407,23.6119415 C9.48776618,23.8884551 9.71179541,24.1127975 9.98830898,24.1129854 C9.9885595,24.1129854 9.98874739,24.1129854 9.98899791,24.1129854 C10.0568267,24.1131106 10.1239666,24.0993319 10.1861587,24.0724008 L13.6934656,22.5692693 C13.9477453,22.4606054 14.0657411,22.1662422 13.9570146,21.9119624 Z M10.4900418,22.8521086 L10.4900418,21.3656367 L12.2241545,22.1088727 L10.4900418,22.8521086 Z" id="Shape"></path>
                    <path d="M24.1341545,20.7858038 L21.9802296,23.3707516 L20.8650939,22.2556785 L20.156618,22.9641545 L21.6597495,24.467286 C21.7535699,24.5614196 21.8810856,24.6142171 22.0139875,24.6140919 C22.0213152,24.6140919 22.0291441,24.6140919 22.0364718,24.6135908 C22.1772025,24.6072651 22.3087265,24.5421294 22.3990397,24.4340292 L24.9042589,21.4277662 L24.1341545,20.7858038 Z" id="Shape"></path>
                </g>
            </g>
        </g>
    </g>
</svg>