<?xml version="1.0" encoding="UTF-8" standalone="no"?>
<svg width="30px" height="30px" viewBox="0 0 30 30" version="1.1" xmlns="http://www.w3.org/2000/svg" xmlns:xlink="http://www.w3.org/1999/xlink">
    <!-- Generator: Sketch 50.2 (55047) - http://www.bohemiancoding.com/sketch -->
    <title>Driver Copy</title>
    <desc>Created with Sketch.</desc>
    <defs></defs>
    <g id="Page-1" stroke="none" stroke-width="1" fill="none" fill-rule="evenodd">
        <g id="website-copy-3" transform="translate(-1188.000000, -1452.000000)" fill="#8B8B8B" fill-rule="nonzero">
            <g id="Group-17-Copy-7" transform="translate(1165.000000, 1422.000000)">
                <g id="Driver-Copy" transform="translate(23.000000, 30.000000)">
                    <path d="M27.65625,2.8125 L22.96875,2.8125 L22.96875,2.34375 C22.96875,1.05140625 21.9173438,0 20.625,0 C19.8557812,0 19.1775,0.3778125 18.75,0.95203125 C18.3225,0.3778125 17.6442188,0 16.875,0 C16.1057812,0 15.4275,0.3778125 15,0.95203125 C14.5725,0.3778125 13.8942187,0 13.125,0 C12.3557813,0 11.6775,0.3778125 11.25,0.95203125 C10.8225,0.3778125 10.1442187,0 9.375,0 C8.08265625,0 7.03125,1.05140625 7.03125,2.34375 L7.03125,2.8125 L2.34375,2.8125 C1.05140625,2.8125 0,3.86390625 0,5.15625 L0,20.15625 C0,21.4485938 1.05140625,22.5 2.34375,22.5 L7.96875,22.5 L7.96875,30 L8.90625,30 L8.90625,22.5 L18.28125,22.5 L18.28125,22.4760938 C18.4354688,22.4915625 18.5915625,22.5 18.75,22.5 L19.6875,22.5 L19.6875,21.5625 L18.75,21.5625 C16.84125,21.5625 15.260625,20.128125 15.0290625,18.28125 L21.09375,18.28125 C21.8690625,18.28125 22.5,18.9121875 22.5,19.6875 L22.5,30 L23.4375,30 L23.4375,22.5 L27.65625,22.5 C28.9485938,22.5 30,21.4485938 30,20.15625 L30,5.15625 C30,3.86390625 28.9485938,2.8125 27.65625,2.8125 Z M19.21875,2.34375 C19.21875,1.5684375 19.8496875,0.9375 20.625,0.9375 C21.4003125,0.9375 22.03125,1.5684375 22.03125,2.34375 L22.03125,4.21875 C22.03125,4.9940625 21.4003125,5.625 20.625,5.625 C19.8496875,5.625 19.21875,4.9940625 19.21875,4.21875 L19.21875,2.34375 Z M15.46875,2.34375 C15.46875,1.5684375 16.0996875,0.9375 16.875,0.9375 C17.6503125,0.9375 18.28125,1.5684375 18.28125,2.34375 L18.28125,4.21875 C18.28125,4.9940625 17.6503125,5.625 16.875,5.625 C16.0996875,5.625 15.46875,4.9940625 15.46875,4.21875 L15.46875,2.34375 Z M11.71875,2.34375 C11.71875,1.5684375 12.3496875,0.9375 13.125,0.9375 C13.9003125,0.9375 14.53125,1.5684375 14.53125,2.34375 L14.53125,4.21875 C14.53125,4.9940625 13.9003125,5.625 13.125,5.625 C12.3496875,5.625 11.71875,4.9940625 11.71875,4.21875 L11.71875,2.34375 Z M7.96875,2.34375 C7.96875,1.5684375 8.5996875,0.9375 9.375,0.9375 C10.1503125,0.9375 10.78125,1.5684375 10.78125,2.34375 L10.78125,4.21875 C10.78125,4.9940625 10.1503125,5.625 9.375,5.625 C8.5996875,5.625 7.96875,4.9940625 7.96875,4.21875 L7.96875,2.34375 Z M29.0625,20.15625 C29.0625,20.9315625 28.4315625,21.5625 27.65625,21.5625 L23.4375,21.5625 L23.4375,19.6875 C23.4375,18.3951562 22.3860937,17.34375 21.09375,17.34375 L14.53125,17.34375 C14.2725,17.34375 14.0625,17.5532813 14.0625,17.8125 C14.0625,19.3467188 14.806875,20.7070312 15.9496875,21.5625 L2.34375,21.5625 C1.5684375,21.5625 0.9375,20.9315625 0.9375,20.15625 L0.9375,5.15625 C0.9375,4.3809375 1.5684375,3.75 2.34375,3.75 L7.03125,3.75 L7.03125,4.21875 C7.03125,5.51109375 8.08265625,6.5625 9.375,6.5625 C10.1442187,6.5625 10.8225,6.1846875 11.25,5.61046875 C11.6775,6.1846875 12.3557813,6.5625 13.125,6.5625 C13.8942187,6.5625 14.5725,6.1846875 15,5.61046875 C15.4275,6.1846875 16.1057812,6.5625 16.875,6.5625 C17.6442188,6.5625 18.3225,6.1846875 18.75,5.61046875 C19.1775,6.1846875 19.8557813,6.5625 20.625,6.5625 C21.9173438,6.5625 22.96875,5.51109375 22.96875,4.21875 L22.96875,3.75 L27.65625,3.75 C28.4315625,3.75 29.0625,4.3809375 29.0625,5.15625 L29.0625,20.15625 Z" id="Shape"></path>
                    <path d="M11.25,7.96875 L2.8125,7.96875 C2.55375,7.96875 2.34375,8.17828125 2.34375,8.4375 L2.34375,17.34375 C2.34375,17.6029687 2.55375,17.8125 2.8125,17.8125 L11.25,17.8125 C11.50875,17.8125 11.71875,17.6029687 11.71875,17.34375 L11.71875,8.4375 C11.71875,8.17828125 11.50875,7.96875 11.25,7.96875 Z M3.7828125,16.875 C3.94125,15.4307812 4.813125,14.2157812 6.0403125,13.7728125 C6.17296875,13.85625 6.3178125,13.9190625 6.47015625,13.9673437 C6.49359375,13.9748437 6.5165625,13.9828125 6.54046875,13.989375 C6.61359375,14.0090625 6.6871875,14.0245312 6.763125,14.0357812 C6.77625,14.0376562 6.78890625,14.038125 6.80203125,14.0395312 C6.87796875,14.0489062 6.95296875,14.0625 7.03125,14.0625 C7.10953125,14.0625 7.18453125,14.0489062 7.26046875,14.0395312 C7.27359375,14.038125 7.28625,14.0376562 7.299375,14.0357812 C7.3753125,14.0245312 7.449375,14.0095312 7.52203125,13.989375 C7.5459375,13.9828125 7.56890625,13.9748437 7.59234375,13.9673437 C7.7446875,13.9190625 7.8890625,13.85625 8.02171875,13.7728125 C9.249375,14.2157812 10.1207813,15.4307812 10.2792187,16.875 L3.7828125,16.875 Z M6.09375,12.1875 L6.09375,11.71875 C6.09375,11.2017187 6.51421875,10.78125 7.03125,10.78125 C7.54828125,10.78125 7.96875,11.2017187 7.96875,11.71875 L7.96875,12.1875 C7.96875,12.4673438 7.843125,12.7157812 7.648125,12.8878125 C7.64390625,12.8910937 7.63828125,12.8934375 7.6340625,12.8971875 C7.51171875,13.0007812 7.3078125,13.125 7.03125,13.125 C6.7546875,13.125 6.55078125,13.0007812 6.4284375,12.8971875 C6.42421875,12.8934375 6.4190625,12.8915625 6.414375,12.8882813 C6.219375,12.7157812 6.09375,12.4673438 6.09375,12.1875 Z M10.78125,15.2015625 C10.3382812,14.2453125 9.6065625,13.4732812 8.69203125,13.0396875 C8.82421875,12.7828125 8.90625,12.4959375 8.90625,12.1875 L8.90625,11.71875 C8.90625,10.6846875 8.0653125,9.84375 7.03125,9.84375 C5.9971875,9.84375 5.15625,10.6846875 5.15625,11.71875 L5.15625,12.1875 C5.15625,12.4959375 5.23828125,12.7828125 5.37046875,13.0396875 C4.4559375,13.4732812 3.72421875,14.2457813 3.28125,15.2015625 L3.28125,8.90625 L10.78125,8.90625 L10.78125,15.2015625 Z" id="Shape"></path>
                    <rect id="Rectangle-path" x="3.28125" y="18.75" width="4.21875" height="1"></rect>
                    <rect id="Rectangle-path" x="8.4375" y="18.75" width="1.875" height="1"></rect>
                    <rect id="Rectangle-path" x="13.59375" y="7.96875" width="5.15625" height="1"></rect>
                    <rect id="Rectangle-path" x="20.15625" y="7.96875" width="5.15625" height="1"></rect>
                    <rect id="Rectangle-path" x="13.59375" y="10.3125" width="2.34375" height="1"></rect>
                    <rect id="Rectangle-path" x="17.34375" y="10.3125" width="1.875" height="1"></rect>
                    <rect id="Rectangle-path" x="13.59375" y="12.65625" width="2.34375" height="1"></rect>
                    <rect id="Rectangle-path" x="13.59375" y="15" width="1" height="1"></rect>
                    <rect id="Rectangle-path" x="15.46875" y="15" width="1" height="1"></rect>
                    <rect id="Rectangle-path" x="17.34375" y="15" width="1" height="1"></rect>
                    <rect id="Rectangle-path" x="19.21875" y="15" width="4.21875" height="1"></rect>
                    <rect id="Rectangle-path" x="24.375" y="15" width="2.8125" height="1"></rect>
                    <path d="M27.1875,10.3125 L23.90625,10.3125 C23.6475,10.3125 23.4375,10.5220312 23.4375,10.78125 L23.4375,13.125 C23.4375,13.3842188 23.6475,13.59375 23.90625,13.59375 L27.1875,13.59375 C27.44625,13.59375 27.65625,13.3842188 27.65625,13.125 L27.65625,10.78125 C27.65625,10.5220312 27.44625,10.3125 27.1875,10.3125 Z M26.71875,12.65625 L24.375,12.65625 L24.375,11.25 L26.71875,11.25 L26.71875,12.65625 Z" id="Shape"></path>
                </g>
            </g>
        </g>
    </g>
</svg>