<?xml version="1.0" encoding="UTF-8" standalone="no"?>
<svg width="30px" height="22px" viewBox="0 0 30 22" version="1.1" xmlns="http://www.w3.org/2000/svg" xmlns:xlink="http://www.w3.org/1999/xlink">
    <!-- Generator: Sketch 50.2 (55047) - http://www.bohemiancoding.com/sketch -->
    <title>driver-get</title>
    <desc>Created with Sketch.</desc>
    <defs></defs>
    <g id="Page-1" stroke="none" stroke-width="1" fill="none" fill-rule="evenodd">
        <g id="website-copy-3" transform="translate(-428.000000, -1456.000000)" fill="#979797" fill-rule="nonzero">
            <g id="Group-17-Copy-9" transform="translate(405.000000, 1422.000000)">
                <g id="driver-get" transform="translate(23.000000, 34.000000)">
                    <path d="M29.79,6.61254545 C25.8392727,2.66127273 20.5772727,0.485454545 14.9749091,0.485454545 C9.37254545,0.485454545 4.11109091,2.66072727 0.159818182,6.61254545 C-0.0534545455,6.82581818 -0.0534545455,7.17054545 0.159818182,7.38381818 C0.373090909,7.59709091 0.717818182,7.59709091 0.931090909,7.38381818 C4.67618182,3.63818182 9.66381818,1.57581818 14.9749091,1.57581818 C20.286,1.57581818 25.2736364,3.63818182 29.0187273,7.38327273 C29.1250909,7.48963636 29.2647273,7.54309091 29.4043636,7.54309091 C29.544,7.54309091 29.6836364,7.48963636 29.79,7.38327273 C30.0032727,7.17054545 30.0032727,6.82527273 29.79,6.61254545 Z" id="Shape"></path>
                    <path d="M3.366,9.81818182 C3.15272727,10.0314545 3.15272727,10.3761818 3.366,10.5894545 C3.47236364,10.6958182 3.612,10.7492727 3.75163636,10.7492727 C3.89127273,10.7492727 4.03090909,10.6958182 4.13727273,10.5894545 C10.1127273,4.61345455 19.836,4.61345455 25.812,10.5894545 C26.0252727,10.8027273 26.37,10.8027273 26.5832727,10.5894545 C26.7965455,10.3761818 26.7965455,10.0314545 26.5832727,9.81818182 C20.1829091,3.41781818 9.76745455,3.41672727 3.366,9.81818182 Z" id="Shape"></path>
                    <path d="M14.9749091,9.54981818 C11.7976364,9.54981818 8.814,10.7841818 6.57272727,13.0249091 C6.35945455,13.2381818 6.35945455,13.5829091 6.57272727,13.7961818 C6.786,14.0094545 7.13072727,14.0094545 7.344,13.7961818 C9.37909091,11.7616364 12.0889091,10.6407273 14.9749091,10.6407273 C17.8609091,10.6407273 20.5707273,11.7616364 22.6058182,13.7961818 C22.7121818,13.9025455 22.8518182,13.956 22.9914545,13.956 C23.1310909,13.956 23.2707273,13.9025455 23.3770909,13.7961818 C23.5903636,13.5829091 23.5903636,13.2381818 23.3770909,13.0249091 C21.1363636,10.7841818 18.1521818,9.54981818 14.9749091,9.54981818 Z" id="Shape"></path>
                    <path d="M14.9749091,14.6814545 C13.0047273,14.6814545 11.4016364,16.2845455 11.4016364,18.2552727 C11.4016364,20.226 13.0047273,21.8290909 14.9749091,21.8290909 C16.9456364,21.8290909 18.5487273,20.226 18.5487273,18.2552727 C18.5487273,16.2845455 16.9456364,14.6814545 14.9749091,14.6814545 Z" id="Shape"></path>
                </g>
            </g>
        </g>
    </g>
</svg>