<?xml version="1.0" encoding="UTF-8" standalone="no"?>
<svg width="30px" height="30px" viewBox="0 0 30 30" version="1.1" xmlns="http://www.w3.org/2000/svg" xmlns:xlink="http://www.w3.org/1999/xlink">
    <!-- Generator: Sketch 50.2 (55047) - http://www.bohemiancoding.com/sketch -->
    <title>edit-profile</title>
    <desc>Created with Sketch.</desc>
    <defs></defs>
    <g id="Page-1" stroke="none" stroke-width="1" fill="none" fill-rule="evenodd">
        <g id="website-copy-3" transform="translate(-1189.000000, -1592.000000)" fill="#979797" fill-rule="nonzero">
            <g id="Group-17-Copy-10" transform="translate(1165.000000, 1562.000000)">
                <g id="edit-profile" transform="translate(24.000000, 30.000000)">
                    <path d="M22.9532813,4.59246094 C23.353125,4.59246094 23.6773828,4.26826172 23.6773828,3.86835937 L23.6773828,1.58361328 C23.6773828,0.710449219 22.9674023,0 22.0945313,0 L6.77583984,0 C6.58382813,0 6.39966797,0.0763476562 6.26378906,0.212109375 L0.265253906,6.21064453 C0.129492188,6.34640625 0.0531445313,6.530625 0.0531445313,6.72263672 L0.0531445313,28.4163281 C0.053203125,29.2895508 0.76359375,30 1.63681641,30 L22.0944727,30 C22.9673438,30 23.6773242,29.2895508 23.6773242,28.4163867 L23.6773242,17.3606836 C23.6773828,16.9608398 23.3531836,16.636582 22.9532813,16.636582 C22.5534375,16.636582 22.2291797,16.9607813 22.2291797,17.3606836 L22.2291797,28.4163867 C22.2291797,28.4910352 22.1687695,28.5517969 22.0945898,28.5517969 L1.636875,28.5517969 C1.56222656,28.5517969 1.50146484,28.4910352 1.50146484,28.4163867 L1.50146484,7.44685547 L5.91708984,7.44685547 C6.79001953,7.44685547 7.50005859,6.73669922 7.50005859,5.86382812 L7.50005859,1.44820313 L22.0945313,1.44820313 C22.1687695,1.44820313 22.2291211,1.50896484 22.2291211,1.58361328 L22.2291211,3.86835937 C22.2291211,4.26826172 22.5533789,4.59246094 22.9532813,4.59246094 Z M6.05185547,5.86376953 C6.05185547,5.938125 5.99138672,5.99859375 5.91708984,5.99859375 L2.52580078,5.99859375 L6.05185547,2.47242187 L6.05185547,5.86376953 Z" id="Shape"></path>
                    <path d="M28.5272461,5.88257813 L27.6752344,5.03068359 C26.7199219,4.07537109 25.1655469,4.07548828 24.2101172,5.03068359 L17.4470508,11.79375 L5.71634766,11.79375 C5.31644531,11.79375 4.99224609,12.1179492 4.99224609,12.5178516 C4.99224609,12.9177539 5.31644531,13.2419531 5.71634766,13.2419531 L15.9988477,13.2419531 L11.6407031,17.6000977 L5.71634766,17.6000977 C5.31644531,17.6000977 4.99224609,17.9242969 4.99224609,18.3241992 C4.99224609,18.7241016 5.31644531,19.0483008 5.71634766,19.0483008 L10.1924414,19.0483008 L10.1807813,19.0599609 C10.0924219,19.1483203 10.0285547,19.2579492 9.99509766,19.3783008 L8.87666016,23.4064453 L5.71634766,23.4064453 C5.31644531,23.4064453 4.99224609,23.7306445 4.99224609,24.1305469 C4.99224609,24.5304492 5.31644531,24.8546484 5.71634766,24.8546484 L9.42720703,24.8546484 C9.42726563,24.8546484 9.5859375,24.8367188 9.60925781,24.830625 C9.61306641,24.8296289 14.1793945,23.5625391 14.1793945,23.5625391 C14.2997461,23.5291406 14.4094336,23.4651563 14.4977344,23.3768555 L28.5273047,9.34746094 C29.4825,8.39226563 29.4825,6.83789063 28.5272461,5.88257813 Z M10.4674219,23.0902148 L11.058457,20.9617383 L12.595957,22.4992383 L10.4674219,23.0902148 Z M13.9857422,21.8409375 L11.7169336,19.5721289 L23.2978711,7.99119141 L25.5667383,10.26 L13.9857422,21.8409375 Z M27.5031445,8.32347656 L26.5907813,9.23583984 L24.3219141,6.96697266 L25.2342773,6.05460938 C25.6250391,5.66390625 26.2606641,5.66396484 26.6511328,6.05460938 L27.5031445,6.90662109 C27.8937891,7.29726563 27.8937891,7.93289063 27.5031445,8.32347656 Z" id="Shape"></path>
                </g>
            </g>
        </g>
    </g>
</svg>