<?xml version="1.0" encoding="UTF-8" standalone="no"?>
<svg width="24px" height="24px" viewBox="0 0 24 24" version="1.1" xmlns="http://www.w3.org/2000/svg" xmlns:xlink="http://www.w3.org/1999/xlink">
    <!-- Generator: Sketch 50.2 (55047) - http://www.bohemiancoding.com/sketch -->
    <title>facebook</title>
    <desc>Created with Sketch.</desc>
    <defs></defs>
    <g id="Page-1" stroke="none" stroke-width="1" fill="none" fill-rule="evenodd">
        <g id="website-copy-3" transform="translate(-1347.000000, -4936.000000)">
            <g id="Group-4" transform="translate(0.000000, 4910.000000)">
                <g id="Group-19" transform="translate(1347.000000, 26.000000)">
                    <g id="facebook">
                        <path d="M23.9354667,11.9003077 C23.9354667,18.437011 18.5770667,23.7365275 11.9677333,23.7365275 C5.3584,23.7365275 0,18.437011 0,11.9003077 C0,5.3636044 5.3584,0.0640879121 11.9677333,0.0640879121 C18.5770667,0.0640879121 23.9354667,5.3636044 23.9354667,11.9003077 Z" id="Fill-1" fill="#3B5998"></path>
                        <path d="M14.976,12.363956 L12.8405333,12.363956 L12.8405333,20.1009231 L9.60533333,20.1009231 L9.60533333,12.363956 L8.06666667,12.363956 L8.06666667,9.64404396 L9.60533333,9.64404396 L9.60533333,7.88465934 C9.60533333,6.62663736 10.2093333,4.65573626 12.8698667,4.65573626 L15.2656,4.66602198 L15.2656,7.30549451 L13.5272,7.30549451 C13.2416,7.30549451 12.8405333,7.44659341 12.8405333,8.04632967 L12.8405333,9.64720879 L15.2594667,9.64720879 L14.976,12.363956 Z" id="Fill-2" fill="#FFFFFF"></path>
                    </g>
                </g>
            </g>
        </g>
    </g>
</svg>