<?xml version="1.0" encoding="UTF-8" standalone="no"?>
<svg width="25px" height="27px" viewBox="0 0 25 27" version="1.1" xmlns="http://www.w3.org/2000/svg" xmlns:xlink="http://www.w3.org/1999/xlink">
    <!-- Generator: Sketch 50.2 (55047) - http://www.bohemiancoding.com/sketch -->
    <title>google-play copy 3</title>
    <desc>Created with Sketch.</desc>
    <defs></defs>
    <g id="Page-1" stroke="none" stroke-width="1" fill="none" fill-rule="evenodd">
        <g id="website-copy-3" transform="translate(-1044.000000, -2312.000000)" fill="#FFFFFF">
            <g id="download-my-app" transform="translate(427.000000, 2012.000000)">
                <g id="app-03" transform="translate(570.000000, 161.000000)">
                    <g id="Group-15-Copy-3" transform="translate(30.000000, 122.000000)">
                        <g id="Group-4-Copy">
                            <g id="google-play-copy-3" transform="translate(17.000000, 17.000000)">
                                <path d="M4.98666667,0.477083333 C3.94333333,-0.0995833333 2.71833333,-0.08625 1.68166667,0.485416667 L13.8316667,11.69375 L17.9133333,7.61208333 L4.98666667,0.477083333" id="Fill-1"></path>
                                <path d="M0.466666667,1.63208333 C0.17,2.11708333 0,2.67208333 0,3.26041667 L0,23.50375 C0,24.07375 0.155,24.6170833 0.435,25.0920833 L12.6533333,12.87375 L0.466666667,1.63208333" id="Fill-3"></path>
                                <path d="M23.325,10.59875 L19.4316667,8.45041667 L15.0566667,12.82375 L20.4183333,17.76875 L23.3266667,16.16375 C24.3733333,15.58375 25,14.54375 25,13.3804167 C24.9983333,12.2170833 24.3733333,11.1770833 23.325,10.59875" id="Fill-4"></path>
                                <path d="M13.8783333,14.00375 L1.62666667,26.2554167 C2.15833333,26.55875 2.74166667,26.71875 3.32833333,26.71875 C3.895,26.71875 4.465,26.5754167 4.98666667,26.2870833 L18.8816667,18.61875 L13.8783333,14.00375" id="Fill-5"></path>
                            </g>
                        </g>
                    </g>
                </g>
            </g>
        </g>
    </g>
</svg>