<?xml version="1.0" encoding="UTF-8" standalone="no"?>
<svg width="24px" height="24px" viewBox="0 0 24 24" version="1.1" xmlns="http://www.w3.org/2000/svg" xmlns:xlink="http://www.w3.org/1999/xlink">
    <!-- Generator: Sketch 50.2 (55047) - http://www.bohemiancoding.com/sketch -->
    <title>google-plus (1)</title>
    <desc>Created with Sketch.</desc>
    <defs></defs>
    <g id="Page-1" stroke="none" stroke-width="1" fill="none" fill-rule="evenodd">
        <g id="website-copy-3" transform="translate(-1419.000000, -4936.000000)">
            <g id="Group-4" transform="translate(0.000000, 4910.000000)">
                <g id="Group-19" transform="translate(1347.000000, 26.000000)">
                    <g id="google-plus-(1)" transform="translate(72.000000, 0.000000)">
                        <path d="M23.9354667,11.9003077 C23.9354667,18.437011 18.5770667,23.7365275 11.9677333,23.7365275 C5.3584,23.7365275 0,18.437011 0,11.9003077 C0,5.3636044 5.3584,0.0640879121 11.9677333,0.0640879121 C18.5770667,0.0640879121 23.9354667,5.3636044 23.9354667,11.9003077 Z" id="Fill-1" fill="#DC4E41"></path>
                        <path d="M4.16666667,12.4298901 C4.124,14.4667253 5.54266667,16.4096703 7.49386667,17.0431648 C9.3312,17.6542418 11.5906667,17.1977143 12.8136,15.6411429 C13.7061333,14.5500659 13.9093333,13.0963516 13.8125333,11.7386374 C12.2386667,11.7241319 10.6645333,11.7294066 9.09386667,11.7312527 C9.09066667,12.2856264 9.09386667,12.8378901 9.09573333,13.392 C10.0376,13.4178462 10.9802667,13.4065055 11.9229333,13.424967 C11.6853333,14.2317363 11.1426667,14.9818022 10.3208,15.2732308 C8.73226667,15.9644835 6.7072,15.0609231 6.2072,13.4136264 C5.60426667,11.8354286 6.59173333,9.93151648 8.22186667,9.47314286 C9.23226667,9.12184615 10.2738667,9.51745055 11.1386667,10.0367473 C11.576,9.63191209 11.9864,9.19806593 12.3896,8.76026374 C11.4061333,7.94742857 10.1437333,7.4487033 8.84586667,7.55789011 C6.29893333,7.58795604 4.06986667,9.91305495 4.16666667,12.4298901 Z" id="Fill-2" fill="#DC4E41"></path>
                        <path d="M16.8749333,10.3323956 C16.8709333,10.7970989 16.8656,11.2625934 16.8634667,11.7262418 C16.3917333,11.7304615 15.9229333,11.7333626 15.4541333,11.7354725 L15.4541333,13.1243077 C15.9229333,13.1264176 16.3946667,13.1282637 16.8634667,13.1335385 C16.8677333,13.5971868 16.8677333,14.0608352 16.8728,14.5273846 C17.3394667,14.5273846 17.8082667,14.5242198 18.2770667,14.5273846 C18.2792,14.0608352 18.2813333,13.5971868 18.2864,13.1314286 C18.7552,13.1293187 19.2261333,13.1264176 19.6946667,13.1243077 L19.6946667,11.7354725 C19.2261333,11.7333626 18.7552,11.7312527 18.2864,11.7262418 C18.2832,11.2625934 18.2792,10.7970989 18.2770667,10.3334505 C17.8082667,10.3323956 17.3416,10.3323956 16.8749333,10.3323956 Z" id="Fill-3" fill="#DC4E41"></path>
                        <path d="M4.16666667,12.4298901 C4.06986667,9.91305495 6.29893333,7.58795604 8.84586667,7.55789011 C10.1437333,7.4487033 11.4061333,7.94742857 12.3896,8.76026374 C11.9864,9.19806593 11.576,9.63191209 11.1386667,10.0367473 C10.2728,9.51745055 9.23226667,9.12079121 8.2208,9.47314286 C6.59066667,9.93151648 5.6032,11.8354286 6.2072,13.4125714 C6.70613333,15.0609231 8.73226667,15.9644835 10.3208,15.2721758 C11.1426667,14.9818022 11.6842667,14.2317363 11.9229333,13.424967 C10.9802667,13.4065055 10.0376,13.4178462 9.09573333,13.392 C9.0928,12.8378901 9.09066667,12.2856264 9.0928,11.7312527 C10.6645333,11.7283516 12.2386667,11.7241319 13.8125333,11.7375824 C13.9082667,13.0963516 13.7061333,14.5500659 12.8125333,15.6411429 C11.5906667,17.1977143 9.3312,17.6542418 7.4928,17.0431648 C5.54266667,16.4096703 4.124,14.4667253 4.16666667,12.4298901 Z" id="Fill-4" fill="#FFFFFF"></path>
                        <path d="M16.8749333,10.3323956 L18.2770667,10.3323956 C18.2792,10.7970989 18.2832,11.2625934 18.2864,11.7262418 C18.7552,11.7304615 19.2261333,11.7333626 19.6946667,11.7354725 L19.6946667,13.1243077 C19.2261333,13.1264176 18.7552,13.1282637 18.2864,13.1314286 C18.2813333,13.5971868 18.2792,14.0608352 18.2770667,14.5263297 C17.8082667,14.5242198 17.3386667,14.5263297 16.8728,14.5263297 C16.8677333,14.0608352 16.8677333,13.5971868 16.8634667,13.1335385 C16.3946667,13.1282637 15.9229333,13.1264176 15.4541333,13.1243077 L15.4541333,11.7354725 C15.9229333,11.7323077 16.3917333,11.7304615 16.8634667,11.7262418 C16.8656,11.2625934 16.8698667,10.7970989 16.8749333,10.3323956 Z" id="Fill-5" fill="#FFFFFF"></path>
                    </g>
                </g>
            </g>
        </g>
    </g>
</svg>