<?xml version="1.0" encoding="UTF-8" standalone="no"?>
<svg width="24px" height="24px" viewBox="0 0 24 24" version="1.1" xmlns="http://www.w3.org/2000/svg" xmlns:xlink="http://www.w3.org/1999/xlink">
    <!-- Generator: Sketch 50.2 (55047) - http://www.bohemiancoding.com/sketch -->
    <title>instagram (2)</title>
    <desc>Created with Sketch.</desc>
    <defs></defs>
    <g id="Page-1" stroke="none" stroke-width="1" fill="none" fill-rule="evenodd">
        <g id="website-copy-3" transform="translate(-1491.000000, -4936.000000)" fill="#6A453B">
            <g id="Group-4" transform="translate(0.000000, 4910.000000)">
                <g id="Group-19" transform="translate(1347.000000, 26.000000)">
                    <g id="instagram-(2)" transform="translate(144.000000, 0.000000)">
                        <path d="M15.535,6.433 L8.401,6.433 C7.26166667,6.433 6.336,7.35866667 6.336,8.498 L6.336,15.631 C6.336,16.7703333 7.26166667,17.6973333 8.401,17.6973333 L15.535,17.6973333 C16.6733333,17.6973333 17.6003333,16.7703333 17.6003333,15.631 L17.6003333,8.498 C17.6003333,7.35866667 16.6733333,6.433 15.535,6.433 Z M11.9673333,15.773 C9.92333333,15.773 8.259,14.1086667 8.259,12.0646667 C8.259,10.0203333 9.92333333,8.35633333 11.9673333,8.35633333 C14.013,8.35633333 15.6756667,10.0203333 15.6756667,12.0646667 C15.6756667,14.1086667 14.0116667,15.773 11.9673333,15.773 Z M15.7956667,9.123 C15.3113333,9.123 14.918,8.73 14.918,8.24566667 C14.918,7.76233333 15.3113333,7.368 15.7956667,7.368 C16.2786667,7.368 16.6733333,7.76233333 16.6733333,8.24566667 C16.6733333,8.73 16.2786667,9.123 15.7956667,9.123 Z" id="Fill-1"></path>
                        <path d="M11.9673333,9.924 C10.7876667,9.924 9.82666667,10.8836667 9.82666667,12.0646667 C9.82666667,13.2456667 10.7876667,14.2063333 11.9673333,14.2063333 C13.1483333,14.2063333 14.1093333,13.2456667 14.1093333,12.0646667 C14.1093333,10.885 13.1483333,9.924 11.9673333,9.924 Z" id="Fill-2"></path>
                        <path d="M11.9673333,0.0646666667 C5.358,0.0646666667 0,5.42266667 0,12.032 C0,18.6413333 5.358,23.9993333 11.9673333,23.9993333 C18.5766667,23.9993333 23.935,18.6413333 23.935,12.032 C23.935,5.42266667 18.5766667,0.0646666667 11.9673333,0.0646666667 Z M19.1666667,15.631 C19.1666667,17.635 17.5376667,19.2636667 15.535,19.2636667 L8.401,19.2636667 C6.39833333,19.2636667 4.76833333,17.635 4.76833333,15.631 L4.76833333,8.498 C4.76833333,6.49566667 6.39833333,4.86533333 8.401,4.86533333 L15.535,4.86533333 C17.5376667,4.86533333 19.1666667,6.49566667 19.1666667,8.498 L19.1666667,15.631 Z" id="Fill-3"></path>
                    </g>
                </g>
            </g>
        </g>
    </g>
</svg>