<?xml version="1.0" encoding="UTF-8" standalone="no"?>
<svg width="30px" height="30px" viewBox="0 0 30 30" version="1.1" xmlns="http://www.w3.org/2000/svg" xmlns:xlink="http://www.w3.org/1999/xlink">
    <!-- Generator: Sketch 50.2 (55047) - http://www.bohemiancoding.com/sketch -->
    <title>invoice</title>
    <desc>Created with Sketch.</desc>
    <defs></defs>
    <g id="Page-1" stroke="none" stroke-width="1" fill="none" fill-rule="evenodd">
        <g id="website-copy-3" transform="translate(-428.000000, -1592.000000)" fill="#979797" fill-rule="nonzero">
            <g id="Group-17-Copy-14" transform="translate(405.000000, 1562.000000)">
                <g id="invoice" transform="translate(23.000000, 30.000000)">
                    <path d="M22.5,3.12498047 C19.7385937,3.12498047 17.5000195,5.36355469 17.5000195,8.12496094 C17.5000195,10.8863672 19.7385937,13.125 22.5,13.125 C25.2601172,13.1218945 27.496875,10.8851367 27.4999805,8.12501953 C27.4999805,5.36355469 25.2614063,3.12498047 22.5,3.12498047 Z M22.5,11.8750195 C20.4289453,11.8750195 18.75,10.1960742 18.75,8.12501953 C18.75,6.05396484 20.4289453,4.37501953 22.5,4.37501953 C24.5702344,4.37707031 26.2479492,6.05478516 26.25,8.12501953 C26.25,10.1960742 24.5710547,11.8750195 22.5,11.8750195 Z" id="Shape"></path>
                    <path d="M23.9331445,6.433125 L21.8750391,8.49123047 L21.0669141,7.68310547 L20.1831445,8.566875 L21.433125,9.81685547 C21.5503125,9.93410156 21.7092773,9.99996094 21.8749805,9.99996094 C22.0407422,9.99990234 22.1996484,9.93404297 22.3168359,9.81685547 L24.8168555,7.31683594 L23.9331445,6.433125 Z" id="Shape"></path>
                    <rect id="Rectangle-path" x="12.4999805" y="16.2499805" width="8.74998047" height="1.24998047"></rect>
                    <path d="M13.7500195,7.5 L6.87498047,7.5 C4.45986328,7.50275391 2.50271484,9.45990234 2.49996094,11.8750195 L3.75,11.8750195 C3.75205078,10.1499609 5.14998047,8.75208984 6.87498047,8.75003906 L13.7499609,8.75003906 C14.4403125,8.75003906 14.9999414,9.30966797 14.9999414,10.0000195 C14.9999414,10.6903711 14.4403125,11.25 13.7499609,11.25 L6.87498047,11.25 L6.87498047,12.4999805 L13.7499609,12.4999805 C15.1306641,12.4999805 16.2499805,11.3807227 16.2499805,9.99996094 C16.2499805,8.61919922 15.1307227,7.5 13.7500195,7.5 Z" id="Shape"></path>
                    <path d="M0.625019531,10.0000195 C0.27984375,10.0000195 0,10.2798047 0,10.6249805 L0,11.25 L3.12498047,11.25 L3.12498047,10.0000195 L0.625019531,10.0000195 Z" id="Shape"></path>
                    <path d="M28.7500195,18.1249805 L28.7500195,26.8749609 C28.7500195,27.9104883 27.9105469,28.7499609 26.8750195,28.7499609 L11.8750195,28.7499609 C10.8394922,28.7499609 10.0000195,27.9104883 10.0000195,26.8749609 L10.0000195,11.8749609 L8.75003906,11.8749609 L8.75003906,26.8749609 C8.75208984,28.6000195 10.1500195,29.9978906 11.8750195,29.9999414 L26.8750195,29.9999414 C28.6000781,29.9978906 29.9979492,28.5999609 30,26.8749609 L30,18.1249805 L28.7500195,18.1249805 Z" id="Shape"></path>
                    <path d="M26.8750195,0 L14.3749805,0 C14.2092188,5.859375e-05 14.0503125,0.0659179687 13.933125,0.183105469 L8.93314453,5.18308594 L9.81691406,6.06685547 L14.6337891,1.24998047 L26.8750195,1.24998047 C27.9105469,1.24998047 28.7500195,2.08945312 28.7500195,3.12498047 L28.7500195,11.8749609 L30,11.8749609 L30,3.12498047 C29.9979492,1.39998047 28.6000195,0.00205078125 26.8750195,0 Z" id="Shape"></path>
                    <path d="M14.8170117,0.18328125 C14.5729688,-0.0608203125 14.1772266,-0.0608789062 13.933125,0.183164063 L8.93314453,5.18314453 C8.81589844,5.30033203 8.75003906,5.45929687 8.75003906,5.625 L8.75003906,8.12501953 L10.0000195,8.12501953 L10.0000195,5.88375 L13.7500195,2.13375 L13.7500195,4.37501953 C13.7500195,4.72019531 13.4701758,5.00003906 13.125,5.00003906 L11.8750195,5.00003906 L11.8750195,6.25001953 L13.125,6.25001953 C14.1605273,6.25001953 15,5.41054687 15,4.37501953 L15,0.625019531 C14.9999414,0.459316406 14.9341406,0.300410156 14.8170117,0.18328125 Z" id="Shape"></path>
                    <path d="M3.75,16.875 L2.50001953,16.875 C2.50277344,19.2901172 4.45992188,21.2472656 6.87503906,21.2500195 L6.87503906,20.0000391 C5.14998047,19.9979297 3.75205078,18.6000586 3.75,16.875 Z" id="Shape"></path>
                    <rect id="Rectangle-path" x="6.87498047" y="19.9999805" width="2.50001953" height="1.24998047"></rect>
                    <path d="M0,17.5000195 L0,18.1250391 C0,18.4701562 0.27984375,18.75 0.625019531,18.75 L3.12503906,18.75 L3.12503906,17.5000195 L0,17.5000195 Z" id="Shape"></path>
                    <path d="M29.4574805,13.6675195 C28.7247656,12.9683789 27.5720508,12.9683789 26.8393359,13.6675195 L18.1674609,22.3393945 C17.9234766,22.5834375 17.9234766,22.9790625 18.1674609,23.2231641 L19.9018359,24.9575391 C20.0190234,25.0747852 20.1779883,25.1406445 20.3436914,25.1406445 C20.5094531,25.1405859 20.6683594,25.0747266 20.7855469,24.9575391 L29.4574219,16.2856641 C29.4577148,16.2853711 29.4580664,16.2850195 29.4583594,16.2847266 C30.1808789,15.5616797 30.1804688,14.3899805 29.4574805,13.6675195 Z M28.5737695,15.4018945 L20.34375,23.6318555 L19.4931445,22.78125 L27.7231641,14.5512305 C27.9611133,14.3238281 28.3358203,14.3238281 28.5737695,14.5512305 C28.5738867,14.5513477 28.5740039,14.5514648 28.5741211,14.551582 C28.8087891,14.7864844 28.8086719,15.167168 28.5737695,15.4018945 Z" id="Shape"></path>
                    <path d="M20.0625,23.956875 L18.2725195,24.85125 L19.1687695,23.0593945 L18.050625,22.5 L16.3156055,25.970625 C16.2721875,26.0574609 16.2496289,26.1532031 16.2496875,26.250293 C16.2498633,26.5954688 16.5298242,26.8751367 16.875,26.8750195 C16.9716797,26.8758398 17.0672461,26.8544531 17.154375,26.8125 L20.625,25.0750195 L20.0625,23.956875 Z" id="Shape"></path>
                    <rect id="Rectangle-path" transform="translate(25.980941, 17.146142) rotate(-44.991897) translate(-25.980941, -17.146142) " x="25.3559569" y="15.9199041" width="1.24996849" height="2.4524765"></rect>
                    <rect id="Rectangle-path" x="12.4999805" y="25.6249805" width="4.37501953" height="1.24998047"></rect>
                    <rect id="Rectangle-path" x="12.4999805" y="22.5" width="3.75" height="1.24998047"></rect>
                    <rect id="Rectangle-path" x="12.4999805" y="19.3750195" width="5.625" height="1.24998047"></rect>
                    <rect id="Rectangle-path" x="20.625" y="25.6249805" width="5.625" height="1.24998047"></rect>
                    <rect id="Rectangle-path" x="23.7499805" y="22.5" width="2.50001953" height="1.24998047"></rect>
                </g>
            </g>
        </g>
    </g>
</svg>