<?xml version="1.0" encoding="UTF-8" standalone="no"?>
<svg width="36px" height="20px" viewBox="0 0 36 20" version="1.1" xmlns="http://www.w3.org/2000/svg" xmlns:xlink="http://www.w3.org/1999/xlink">
    <!-- Generator: Sketch 50.2 (55047) - http://www.bohemiancoding.com/sketch -->
    <title>Kilometers</title>
    <desc>Created with Sketch.</desc>
    <defs></defs>
    <g id="Page-1" stroke="none" stroke-width="1" fill="none" fill-rule="evenodd">
        <g id="website-copy-3" transform="translate(-1309.000000, -4187.000000)" fill="#FFFFFF" fill-rule="nonzero">
            <g id="Our-fun-facts" transform="translate(0.000000, 3880.000000)">
                <g id="Group-9" transform="translate(1309.000000, 289.000000)">
                    <g id="Kilometers" transform="translate(0.000000, 18.000000)">
                        <path d="M30.811443,5.45225316 C30.7821266,5.41443038 30.7509873,5.37751899 30.7163544,5.34273418 C30.6815696,5.30810127 30.6446582,5.27696203 30.6069873,5.24764557 C27.3577215,2.04972152 22.9032911,0.0730632911 17.9951392,0.0726075949 C17.9945316,0.0726075949 17.9939241,0.0724556962 17.9939241,0.0724556962 C17.992557,0.0724556962 17.9919494,0.0726075949 17.9913418,0.0726075949 C13.083038,0.0730632911 8.62860759,2.04972152 5.37949367,5.24764557 C5.34167089,5.27696203 5.30475949,5.30794937 5.27012658,5.34273418 C5.23534177,5.37751899 5.20435443,5.41443038 5.17503797,5.45225316 C1.97665823,8.70182278 0,13.1570127 0,18.0657722 C0,18.6949367 0.509924051,19.2050127 1.13924051,19.2050127 L34.8470886,19.2050127 C35.4764051,19.2050127 35.9863291,18.6949367 35.9863291,18.0657722 C35.9863291,13.1570127 34.0096709,8.70182278 30.811443,5.45225316 Z M17.9931646,14.0797975 C16.8761013,14.0797975 15.867038,14.5398987 15.1433924,15.2801013 L14.4259747,14.9681013 C15.2934684,13.9704304 16.570481,13.3379241 17.9931646,13.3379241 C20.2073924,13.3379241 22.0701266,14.8681519 22.5814177,16.9265316 L21.812962,16.9265316 C21.3227848,15.2804051 19.798481,14.0797975 17.9931646,14.0797975 Z M24.1339747,16.9265316 C23.5967089,14.0243544 21.0484557,11.8189367 17.9931646,11.8189367 C15.9437468,11.8189367 14.1218734,12.8111392 12.9821772,14.3401519 L6.52997468,11.5338228 C5.95275949,11.2825823 5.28167089,11.5471899 5.03088608,12.1241013 C4.78010127,12.7010127 5.04425316,13.3722532 5.62131646,13.6231899 L11.9772152,16.3877468 C11.9278481,16.5644051 11.8862278,16.7441013 11.8523544,16.9266835 L2.31934177,16.9266835 C2.56951899,13.448962 3.95726582,10.2817215 6.11043038,7.79422785 L6.8876962,8.57149367 C7.11022785,8.79387342 7.40187342,8.90521519 7.69336709,8.90521519 C7.98486076,8.90521519 8.27650633,8.79402532 8.49903797,8.57149367 C8.94394937,8.12658228 8.94394937,7.40521519 8.49903797,6.9604557 L7.72162025,6.18303797 C10.208962,4.03002532 13.3763544,2.64258228 16.8540759,2.39225316 L16.8540759,3.68962025 C16.8540759,4.31878481 17.364,4.82886076 17.9933165,4.82886076 C18.6226329,4.82886076 19.132557,4.31878481 19.132557,3.68962025 L19.132557,2.39225316 C22.6102785,2.64258228 25.777519,4.03002532 28.2650127,6.18303797 L27.4875949,6.9604557 C27.0426835,7.40536709 27.0426835,8.12673418 27.4875949,8.57149367 C27.7101266,8.79387342 28.0017722,8.90521519 28.2932658,8.90521519 C28.5847595,8.90521519 28.8764051,8.79402532 29.0989367,8.57149367 L29.8762025,7.79422785 C32.0293671,10.2817215 33.4171139,13.448962 33.6672911,16.9266835 L24.1339747,16.9266835 L24.1339747,16.9265316 Z" id="Shape"></path>
                    </g>
                </g>
            </g>
        </g>
    </g>
</svg>