<?xml version="1.0" encoding="UTF-8" standalone="no"?>
<svg width="24px" height="24px" viewBox="0 0 24 24" version="1.1" xmlns="http://www.w3.org/2000/svg" xmlns:xlink="http://www.w3.org/1999/xlink">
    <!-- Generator: Sketch 50.2 (55047) - http://www.bohemiancoding.com/sketch -->
    <title>linkedin</title>
    <desc>Created with Sketch.</desc>
    <defs></defs>
    <g id="Page-1" stroke="none" stroke-width="1" fill="none" fill-rule="evenodd">
        <g id="website-copy-3" transform="translate(-1455.000000, -4936.000000)">
            <g id="Group-4" transform="translate(0.000000, 4910.000000)">
                <g id="Group-19" transform="translate(1347.000000, 26.000000)">
                    <g id="linkedin" transform="translate(108.000000, 0.000000)">
                        <path d="M23.9354667,11.9003077 C23.9354667,18.437011 18.5770667,23.7365275 11.9677333,23.7365275 C5.3584,23.7365275 0,18.437011 0,11.9003077 C0,5.3636044 5.3584,0.0640879121 11.9677333,0.0640879121 C18.5770667,0.0640879121 23.9354667,5.3636044 23.9354667,11.9003077 Z" id="Fill-1" fill="#007AB9"></path>
                        <path d="M19.1176,12.8521319 L19.1176,17.7323077 L16.2573333,17.7323077 L16.2573333,13.179956 C16.2573333,12.0363956 15.8448,11.2554725 14.8082667,11.2554725 C14.0186667,11.2554725 13.5490667,11.7818901 13.3416,12.2909011 C13.2656,12.4720879 13.2469333,12.7244835 13.2469333,12.980044 L13.2469333,17.7323077 L10.3853333,17.7323077 C10.3853333,17.7323077 10.424,10.0211868 10.3853333,9.22285714 L13.2469333,9.22285714 L13.2469333,10.4291868 C13.2416,10.4384176 13.2333333,10.4476484 13.228,10.4568791 L13.2469333,10.4568791 L13.2469333,10.4291868 C13.6272,9.85028571 14.3053333,9.02294505 15.8250667,9.02294505 C17.7072,9.02294505 19.1176,10.2395604 19.1176,12.8521319 Z M7.39386667,5.12149451 C6.41466667,5.12149451 5.77493333,5.7570989 5.77493333,6.59156044 C5.77493333,7.40861538 6.39573333,8.06162637 7.35626667,8.06162637 L7.37386667,8.06162637 C8.372,8.06162637 8.9928,7.40861538 8.9928,6.59156044 C8.97386667,5.7570989 8.372,5.12149451 7.39386667,5.12149451 Z M5.9448,17.7323077 L8.80426667,17.7323077 L8.80426667,9.22285714 L5.9448,9.22285714 L5.9448,17.7323077 Z" id="Fill-2" fill="#F1F2F2"></path>
                    </g>
                </g>
            </g>
        </g>
    </g>
</svg>