<?xml version="1.0" encoding="UTF-8" standalone="no"?>
<svg width="32px" height="32px" viewBox="0 0 32 32" version="1.1" xmlns="http://www.w3.org/2000/svg" xmlns:xlink="http://www.w3.org/1999/xlink">
    <!-- Generator: Sketch 50.2 (55047) - http://www.bohemiancoding.com/sketch -->
    <title>login</title>
    <desc>Created with Sketch.</desc>
    <defs></defs>
    <g id="Page-1" stroke="none" stroke-width="1" fill="none" fill-rule="evenodd">
        <g id="website-copy-3" transform="translate(-428.000000, -1311.000000)" fill="#979797" fill-rule="nonzero">
            <g id="Group-17-Copy-6" transform="translate(406.000000, 1282.000000)">
                <g id="login" transform="translate(23.000000, 30.000000)">
                    <path d="M7.70507812,27.65625 L3.55623047,27.65625 C3.05595703,27.65625 2.75414062,27.3770508 2.61878906,27.2105859 C2.38511719,26.923125 2.29458984,26.5490625 2.37058594,26.184082 C3.58751953,20.3387109 8.74611328,16.0698633 14.7013477,15.9313477 C14.8005469,15.9350391 14.8999805,15.9375 15,15.9375 C15.1008984,15.9375 15.2012109,15.9349805 15.3012891,15.9312305 C16.7575195,15.9644531 18.1799414,16.2382617 19.5338672,16.7466797 C20.1397266,16.9743164 20.8153711,16.6674609 21.0428906,16.061543 C21.2704102,15.4556836 20.9636719,14.7800391 20.3577539,14.5525195 C20.16375,14.4796289 19.9683984,14.4114258 19.7721094,14.3467383 C21.7116211,12.8918555 22.96875,10.5743555 22.96875,7.96875 C22.96875,3.57480469 19.3940039,0 15,0 C10.6059961,0 7.03125,3.57480469 7.03125,7.96875 C7.03125,10.5766992 8.29054688,12.8960156 10.2329883,14.3506641 C8.4534375,14.9364844 6.78351562,15.8475 5.32207031,17.0496094 C2.64246094,19.2537305 0.779355469,22.3280859 0.0760546875,25.7064258 C-0.144375,26.7649805 0.119648437,27.8522461 0.800449219,28.6893164 C1.47779297,29.5222852 2.48226562,30 3.55623047,30 L7.70507812,30 C8.35230469,30 8.87695312,29.4753516 8.87695312,28.828125 C8.87695312,28.1808984 8.35230469,27.65625 7.70507812,27.65625 Z M9.375,7.96875 C9.375,4.86708984 11.8983398,2.34375 15,2.34375 C18.1016602,2.34375 20.625,4.86708984 20.625,7.96875 C20.625,10.9785352 18.2487891,13.4436328 15.2738672,13.5870117 C15.1826367,13.5853711 15.0914063,13.5839648 15,13.5839648 C14.9083594,13.5839648 14.8167773,13.5853125 14.7252539,13.5869531 C11.7507422,13.4431641 9.375,10.9782422 9.375,7.96875 Z" id="Shape" stroke="#FFFFFF"></path>
                    <path d="M29.1028711,20.1918164 C28.60125,19.0697461 27.4713281,18.3427148 26.2214648,18.3398438 L22.5668555,18.3398438 C22.5642187,18.3398438 22.5617578,18.3398438 22.5590625,18.3398438 C21.2407031,18.3398438 20.0905078,19.1167969 19.6276758,20.3207227 C19.5660938,20.480918 19.4908008,20.6827148 19.4122266,20.9179688 L11.7396094,20.9179688 C11.422793,20.9179688 11.1195117,21.0462305 10.8987891,21.2735156 L8.88574219,23.3470313 C8.44236328,23.8037109 8.44458984,24.5308008 8.89072266,24.9847266 L10.9415039,27.0713672 C11.1618164,27.2955469 11.4629883,27.4218164 11.7772852,27.4218164 L15.5858789,27.4218164 C16.2331055,27.4218164 16.7577539,26.897168 16.7577539,26.2499414 C16.7577539,25.6027148 16.2331055,25.0780664 15.5858789,25.0780664 L12.2686523,25.0780664 L11.364668,24.1582617 L12.2351953,23.2617188 L20.2913086,23.2617188 C20.8311914,23.2617188 21.3011719,22.8928711 21.4295508,22.3685156 C21.5243555,21.9813867 21.6433008,21.6091992 21.815332,21.1617187 C21.9287695,20.8666406 22.2136523,20.6835937 22.561875,20.6835937 C22.5626367,20.6835937 22.5633984,20.6835937 22.5641602,20.6835937 L26.2187109,20.6835937 C26.5501172,20.6843555 26.8353516,20.8624805 26.9631445,21.1483594 C27.2777344,21.8521875 27.6533789,22.9417969 27.6561914,24.1358203 C27.6590039,25.3386914 27.2837695,26.4532617 26.9683594,27.1764844 C26.8412109,27.4681641 26.5535742,27.65625 26.2324219,27.65625 C26.2317773,27.65625 26.2311328,27.65625 26.2304883,27.65625 L22.5317578,27.65625 C22.2075586,27.6554883 21.9038672,27.4468945 21.7761328,27.1372266 C21.639082,26.8049414 21.5203125,26.4255469 21.4130273,25.9772461 C21.2623828,25.347832 20.6298047,24.959707 20.000625,25.110293 C19.3711523,25.2609375 18.9830273,25.8933398 19.1336719,26.5227539 C19.269668,27.0910547 19.4253516,27.5843555 19.6095117,28.0308398 C20.1016406,29.224043 21.2465625,29.9969531 22.5290625,29.9999414 L26.227793,29.9999414 C26.2303125,29.9999414 26.2326562,29.9999414 26.2351758,29.9999414 C27.4862109,29.9998828 28.6168359,29.2599023 29.1168164,28.1131641 C29.5218164,27.1843945 30.00375,25.7394727 29.9999414,24.1302539 C29.9961914,22.5254297 29.5100391,21.1027148 29.1028711,20.1918164 Z" id="Shape" stroke="#FFFFFF"></path>
                    <circle id="Oval" cx="25.2539062" cy="24.140625" r="1.171875"></circle>
                </g>
            </g>
        </g>
    </g>
</svg>