<?xml version="1.0" encoding="UTF-8" standalone="no"?>
<svg width="10px" height="5px" viewBox="0 0 10 5" version="1.1" xmlns="http://www.w3.org/2000/svg" xmlns:xlink="http://www.w3.org/1999/xlink">
    <!-- Generator: Sketch 50.2 (55047) - http://www.bohemiancoding.com/sketch -->
    <title>next-h-02</title>
    <desc>Created with Sketch.</desc>
    <defs></defs>
    <g id="Page-1" stroke="none" stroke-width="1" fill="none" fill-rule="evenodd">
        <g id="website-copy-3" transform="translate(-1491.000000, -2895.000000)" fill="#0891B3" fill-rule="nonzero">
            <g id="Group-17" transform="translate(405.000000, 2885.000000)">
                <g id="Group-13" transform="translate(570.000000, 0.000000)">
                    <g id="Group-12" transform="translate(385.000000, 0.000000)">
                        <g id="next-h-02" transform="translate(131.000000, 10.000000)">
                            <path d="M9.92910931,2.07040486 L7.70983806,0.0475506073 C7.64817814,-0.00253036437 7.58076923,-0.0121659919 7.50755061,0.0186639676 C7.43441296,0.049534413 7.39769231,0.105364372 7.39769231,0.186315789 L7.39769231,1.48093117 L0.184939271,1.48093117 C0.13097166,1.48093117 0.0866396761,1.49823887 0.0520040486,1.53291498 C0.017388664,1.56757085 0,1.61190283 0,1.66582996 L0,2.77546559 C0,2.82937247 0.0173076923,2.87370445 0.0519838057,2.90831984 C0.0867004049,2.94297571 0.131032389,2.9602834 0.184919028,2.9602834 L7.39773279,2.9602834 L7.39773279,4.25487854 C7.39773279,4.33204453 7.43451417,4.38787449 7.50761134,4.42244939 C7.58089069,4.45340081 7.6482996,4.4417004 7.70995951,4.38787449 L9.92923077,2.34178138 C9.96775304,2.30327935 9.98696356,2.25712551 9.98696356,2.20313765 C9.98696356,2.15317814 9.96763158,2.10892713 9.92910931,2.07040486 Z" id="Shape"></path>
                        </g>
                    </g>
                </g>
            </g>
        </g>
    </g>
</svg>