<?xml version="1.0" encoding="UTF-8" standalone="no"?>
<svg width="30px" height="30px" viewBox="0 0 30 30" version="1.1" xmlns="http://www.w3.org/2000/svg" xmlns:xlink="http://www.w3.org/1999/xlink">
    <!-- Generator: Sketch 50.2 (55047) - http://www.bohemiancoding.com/sketch -->
    <title>review</title>
    <desc>Created with Sketch.</desc>
    <defs></defs>
    <g id="Page-1" stroke="none" stroke-width="1" fill="none" fill-rule="evenodd">
        <g id="website-copy-3" transform="translate(-808.000000, -1592.000000)" fill="#979797" fill-rule="nonzero">
            <g id="Group-17-Copy-13" transform="translate(785.000000, 1562.000000)">
                <g id="review" transform="translate(23.000000, 30.000000)">
                    <path d="M7.18072266,16.2540234 C6.44443359,16.2540234 5.84542969,16.8529687 5.84542969,17.5891992 C5.84542969,18.3254297 6.44443359,18.924375 7.18072266,18.924375 C7.91695313,18.924375 8.51589844,18.3254297 8.51589844,17.5891992 C8.51589844,16.8529687 7.91689453,16.2540234 7.18072266,16.2540234 Z M7.18072266,18.0438867 C6.93005859,18.0438867 6.72609375,17.8399219 6.72609375,17.5893164 C6.72609375,17.3387109 6.93005859,17.1347461 7.18072266,17.1347461 C7.43138672,17.1347461 7.63529297,17.3387109 7.63529297,17.5893164 C7.63529297,17.8399219 7.43132813,18.0438867 7.18072266,18.0438867 Z" id="Shape"></path>
                    <path d="M19.2611719,24.7449609 C19.2022852,24.5633789 19.0331836,24.440625 18.8424609,24.440625 L16.2269531,24.440625 L15.4187109,21.9531445 C15.3604687,21.7737891 15.1884961,21.6488672 14.9999414,21.6488672 C14.8113867,21.6488672 14.6394727,21.7737305 14.5811719,21.9531445 L13.7729297,24.440625 L11.1574805,24.440625 C10.9667578,24.440625 10.7976562,24.5634375 10.7387109,24.7449023 C10.6797656,24.9263086 10.7443359,25.1251172 10.8986719,25.2371484 L13.0146094,26.7745312 L12.2063672,29.2620117 C12.1499414,29.4355078 12.2092383,29.630918 12.3525586,29.7438281 C12.5056641,29.8644727 12.7262109,29.8688672 12.8839453,29.7542578 L14.9998828,28.216875 L17.1158203,29.7542578 C17.2812891,29.8744922 17.5139062,29.8629492 17.6668359,29.7273047 C17.7965039,29.6122852 17.8469531,29.4268945 17.7933398,29.2620703 L16.9850977,26.7745898 L19.1010352,25.237207 C19.2555469,25.1251758 19.3201172,24.9263672 19.2611719,24.7449609 Z M16.2088477,26.2500586 C16.0545117,26.3621484 15.9899414,26.5608984 16.0488867,26.7423047 L16.537207,28.2452344 L15.2586914,27.3164062 C15.1061133,27.2054883 14.8936523,27.2054883 14.7411328,27.3164062 L13.4626172,28.2452344 L13.9509375,26.7423047 C14.0098828,26.5608984 13.9453125,26.3620898 13.7909766,26.2500586 L12.5125195,25.3212305 L14.092793,25.3212305 C14.2835156,25.3212305 14.4526172,25.198418 14.5115625,25.0169531 L14.9998828,23.5140234 L15.4882031,25.0169531 C15.5471484,25.198418 15.71625,25.3212305 15.9069727,25.3212305 L17.4872461,25.3212305 L16.2088477,26.2500586 Z" id="Shape"></path>
                    <path d="M29.9783789,24.7448437 C29.9194336,24.5633789 29.750332,24.4405664 29.5596094,24.4405664 L26.9441602,24.4405664 L26.135918,21.9530859 C26.0776758,21.7737305 25.9057031,21.6488086 25.7171484,21.6488086 C25.5285938,21.6488086 25.3566797,21.7736719 25.2983789,21.9530859 L24.4901367,24.4405664 L21.8746875,24.4405664 C21.6839648,24.4405664 21.5148633,24.5633789 21.455918,24.7448437 C21.3969727,24.92625 21.461543,25.1250586 21.6158789,25.2370898 L23.7318164,26.7744727 L22.9235742,29.2619531 C22.8671484,29.4354492 22.9264453,29.6308594 23.0697656,29.7437695 C23.2228711,29.8644141 23.443418,29.8688086 23.6011523,29.7541992 L25.7170898,28.2168164 L27.8330273,29.7541992 C27.9985547,29.8744336 28.2311133,29.8628906 28.3841016,29.7272461 C28.5137695,29.6122266 28.5642188,29.4268359 28.5106055,29.2620117 L27.7023633,26.7745312 L29.8183008,25.2371484 C29.9728125,25.1250586 30.0373828,24.92625 29.9783789,24.7448437 Z M26.9260547,26.2500586 C26.7717188,26.3621484 26.7071484,26.5608984 26.7660938,26.7423047 L27.2543555,28.2452344 L25.975957,27.3164062 C25.8215625,27.2042578 25.6126172,27.2041992 25.4583398,27.3164062 L24.1798242,28.2452344 L24.6681445,26.7423047 C24.7270898,26.5608984 24.6625195,26.3620898 24.5081836,26.2500586 L23.2297266,25.3212305 L24.8100586,25.3212305 C25.0007813,25.3212305 25.1698828,25.198418 25.2288281,25.0169531 L25.7171484,23.5140234 L26.2054688,25.0169531 C26.2644141,25.198418 26.4335156,25.3212305 26.6242383,25.3212305 L28.2045117,25.3212305 L26.9260547,26.2500586 Z" id="Shape"></path>
                    <path d="M8.54408203,24.7449609 C8.48507812,24.5633789 8.31597656,24.440625 8.12525391,24.440625 L5.50980469,24.440625 L4.7015625,21.9531445 C4.64261719,21.7716797 4.47351563,21.6488672 4.28279297,21.6488672 C4.09207031,21.6488672 3.92296875,21.7716797 3.86402344,21.9531445 L3.05578125,24.440625 L0.440332031,24.440625 C0.249609375,24.440625 0.0805078125,24.5634375 0.0215625,24.7449023 C-0.0373828125,24.9263086 0.0271875,25.1251172 0.181523438,25.2371484 L2.29746094,26.7745312 L1.48921875,29.2620117 C1.43027344,29.443418 1.49484375,29.6422266 1.64917969,29.7542578 C1.80345703,29.8664062 2.01246094,29.8664062 2.16679688,29.7542578 L4.28273438,28.216875 L6.39867188,29.7542578 C6.56419922,29.8744922 6.79675781,29.8629492 6.9496875,29.7273047 C7.07935547,29.6122852 7.12980469,29.4268945 7.07619141,29.2620703 L6.26794922,26.7745898 L8.38388672,25.237207 C8.53845703,25.1251758 8.60302734,24.9263672 8.54408203,24.7449609 Z M5.49169922,26.2500586 C5.33736328,26.3621484 5.27279297,26.5608984 5.33173828,26.7423047 L5.82005859,28.2452344 L4.54154297,27.3164062 C4.38896484,27.2054883 4.17650391,27.2054883 4.02392578,27.3164062 L2.74552734,28.2451758 L3.23378906,26.7422461 C3.29273437,26.5608398 3.22816406,26.3620313 3.07382812,26.25 L1.79537109,25.3211719 L3.37564453,25.3211719 C3.56636719,25.3211719 3.73546875,25.1983594 3.79441406,25.0168945 L4.28273438,23.5139648 L4.77105469,25.0168945 C4.83,25.1983594 4.99910156,25.3211719 5.18982422,25.3211719 L6.77009766,25.3211719 L5.49169922,26.2500586 Z" id="Shape"></path>
                    <path d="M26.4355664,11.0213672 C26.8903711,10.6553906 27.181875,10.0942383 27.181875,9.46640625 C27.181875,8.36619141 26.2867969,7.47111328 25.1866406,7.47111328 L18.1040625,7.47111328 C18.3241992,6.99111328 18.5783203,6.25992188 18.7235742,5.24349609 C19.060957,2.88164063 18.5511328,1.62796875 18.064043,0.992167969 C17.6517773,0.454042969 17.0978906,0.128613281 16.4623828,0.0511523438 C15.9261328,-0.0147070312 15.4364648,0.411210938 15.422168,0.949921875 C15.3397266,1.79683594 15.0381445,4.12025391 14.6061914,4.98427734 C13.4964844,7.20369141 10.8507422,8.52691406 10.0335938,8.89300781 C9.74765625,8.64726563 9.37628906,8.49826172 8.97058594,8.49826172 L5.39085937,8.49826172 C4.49015625,8.49826172 3.75738281,9.23097656 3.75738281,10.1317383 L3.75738281,19.0808203 C3.75738281,19.981582 4.49015625,20.7142969 5.39085937,20.7142969 L8.97046875,20.7142969 C9.45240234,20.7142969 9.88617187,20.5043555 10.1853516,20.1713086 C10.6500586,20.4646875 11.4000586,20.7915234 12.4358203,20.7915234 L23.9426367,20.7915234 C25.0428516,20.7915234 25.9378711,19.8964453 25.9378711,18.7962891 C25.9378711,18.2919727 25.7497852,17.8307227 25.4400586,17.479043 C26.1026367,17.1541406 26.5597852,16.4725195 26.5597852,15.68625 C26.5597852,15.1819336 26.3716992,14.7207422 26.0619727,14.3690039 C26.7245508,14.0441602 27.1816992,13.3625391 27.1816992,12.5762695 C27.181875,11.9484961 26.8903125,11.3873438 26.4355664,11.0213672 Z M8.97046875,19.8336328 L5.39085937,19.8336328 C4.97572266,19.8336328 4.63798828,19.4958984 4.63798828,19.0807617 L4.63798828,10.1316797 C4.63798828,9.71654297 4.97572266,9.37880859 5.39085937,9.37880859 L8.97046875,9.37880859 C9.18070312,9.37880859 9.37083984,9.46564453 9.50753906,9.60509766 L9.50753906,19.4242383 C9.50753906,19.4769141 9.51708984,19.5285937 9.53513672,19.5771094 C9.39703125,19.7339648 9.19541016,19.8336328 8.97046875,19.8336328 Z M23.3366602,11.4616406 L25.1868164,11.4616406 C25.8014648,11.4616406 26.3014453,11.9617383 26.3014453,12.5762695 C26.3014453,13.1908008 25.8014062,13.6908984 25.1868164,13.6908984 L23.3366602,13.6908984 C23.0934961,13.6908984 22.8963281,13.8880078 22.8963281,14.1312305 C22.8963281,14.3744531 23.0934961,14.5715625 23.3366602,14.5715625 L24.5647852,14.5715625 C25.1794336,14.5715625 25.6794141,15.0716602 25.6794141,15.6861914 C25.6794141,16.3007227 25.179375,16.8008203 24.5647852,16.8008203 L22.9991016,16.8008203 C22.7559375,16.8008203 22.5587695,16.9979297 22.5587695,17.2411523 C22.5587695,17.484375 22.7559375,17.6814844 22.9991016,17.6814844 L23.9427539,17.6814844 C24.5573437,17.6814844 25.0573828,18.181582 25.0573828,18.7961719 C25.0573828,19.4107617 24.5573437,19.9108008 23.9427539,19.9108008 L12.4359375,19.9108008 C11.5271484,19.9108008 10.9110352,19.6063477 10.5765234,19.3777734 C10.5943359,19.2813281 10.6041211,19.1821289 10.6041211,19.0806445 L10.6041211,10.1316797 C10.6041211,9.95953125 10.577168,9.79365234 10.5275977,9.63779297 C11.5593164,9.16429687 14.2006641,7.76431641 15.3938086,5.37808594 C15.9905859,4.18458984 16.288125,1.14533203 16.3004883,1.01654297 C16.3017773,1.00259766 16.3024805,0.988476562 16.3024805,0.974472656 C16.3024805,0.959472656 16.3082227,0.946699219 16.3195312,0.936738281 C16.3353516,0.922851562 16.3505859,0.924609375 16.3556836,0.925253906 C16.6313086,0.958886719 17.0301562,1.09072266 17.3650195,1.52771484 C17.7494531,2.02951172 18.145957,3.05988281 17.8518164,5.11898437 C17.6025,6.86431641 17.0113477,7.62785156 17.0076562,7.63259766 C16.7768555,7.91466797 16.9846875,8.35177734 17.3483789,8.35177734 L25.1867578,8.35177734 C25.8014062,8.35177734 26.3013867,8.851875 26.3013867,9.46646484 C26.3013867,10.0811133 25.8013477,10.5810937 25.1867578,10.5810937 L23.3366016,10.5810937 C23.0934375,10.5810937 22.8962695,10.7782031 22.8962695,11.0214258 C22.8962695,11.2646484 23.0934375,11.4616406 23.3366602,11.4616406 Z" id="Shape"></path>
                </g>
            </g>
        </g>
    </g>
</svg>