<?xml version="1.0" encoding="UTF-8" standalone="no"?>
<svg width="30px" height="27px" viewBox="0 0 30 27" version="1.1" xmlns="http://www.w3.org/2000/svg" xmlns:xlink="http://www.w3.org/1999/xlink">
    <!-- Generator: Sketch 50.2 (55047) - http://www.bohemiancoding.com/sketch -->
    <title>rider</title>
    <desc>Created with Sketch.</desc>
    <defs></defs>
    <g id="Page-1" stroke="none" stroke-width="1" fill="none" fill-rule="evenodd">
        <g id="website-copy-3" transform="translate(-808.000000, -1454.000000)" fill="#8B8B8B" fill-rule="nonzero">
            <g id="Group-17-Copy-8" transform="translate(785.000000, 1422.000000)">
                <g id="rider" transform="translate(23.000000, 32.000000)">
                    <path d="M1.71295166,3.34579465 C1.87271121,3.34579465 2.0228577,3.40805051 2.13592529,3.5208893 C2.24876402,3.63395689 2.31101988,3.78410338 2.31101988,3.94386293 L2.31147768,14.1082764 C2.02995299,14.291153 1.84272768,14.6079254 1.84272768,14.9681854 L1.84295654,16.5584564 C1.84295654,16.8010712 2.03956605,16.9979095 2.28240967,16.9979095 C2.52502441,16.9979095 2.72186279,16.8010712 2.72186279,16.5584564 L2.72163393,14.9679565 C2.72163393,14.8873901 2.78755189,14.8214722 2.8681183,14.8214722 L4.70649721,14.8214722 C4.74517822,14.8214722 4.78271484,14.837265 4.8099518,14.8642731 L7.81906125,17.8729248 C8.01269531,18.0667877 8.2699585,18.1732178 8.54370117,18.1732178 L8.54393004,18.1732178 L16.4859009,18.17276 C16.8360901,18.17276 17.1583557,17.9969788 17.3478698,17.7026367 L19.9651337,13.638153 C19.9667358,13.6354065 19.9701691,13.6338043 19.9736023,13.6338043 C20.8834076,13.6338043 21.7874909,13.7631226 22.6604462,14.017868 C22.8934479,14.0860748 23.1374359,13.952179 23.2054138,13.7191772 C23.2733917,13.4861755 23.1397247,13.2421875 22.906723,13.1742096 C21.953888,12.8958893 20.9669495,12.7548981 19.9736023,12.7548981 C19.6698761,12.7548981 19.3904114,12.9071045 19.2260742,13.1623078 L18.0931091,14.9217224 L17.4721527,14.5907593 C17.5545502,14.3444824 17.5286865,14.074173 17.3954773,13.84552 C17.3858643,13.8288117 17.3755646,13.812561 17.365036,13.7967682 L17.6074219,13.2813263 C17.7108765,13.0615997 17.6165771,12.7997589 17.3968506,12.6965332 C17.1773529,12.5933075 16.9155121,12.6873779 16.8122864,12.9071045 L16.5840912,13.3918762 L15.6697083,13.349762 C15.4955292,13.3415222 15.3291321,13.3726501 15.1773834,13.4335327 C14.9775696,13.3186341 14.7441101,13.2662201 14.5106507,13.2902527 L12.2879791,13.5166168 L11.0739899,12.6644897 C11.0691833,12.6345062 11.0623169,12.6045227 11.0559082,12.5745392 C11.8320465,12.2170257 12.4271393,11.4981079 12.5873566,10.5949402 C12.5889587,10.585556 12.5901032,10.5761719 12.5917054,10.5667877 C12.6690674,10.5249023 12.7420807,10.4743195 12.8079987,10.4136657 C13.0627441,10.1795197 13.1863403,9.84924316 13.1467438,9.5070648 C12.9920197,8.16238406 11.995697,7.07908629 10.6679535,6.81129457 C9.34020996,6.54396059 8.00193785,7.15644838 7.33818053,8.33610533 C7.16949463,8.63616943 7.15530398,8.98864746 7.29927064,9.30313113 C7.31140137,9.32991029 7.32513428,9.35554506 7.33932492,9.3809509 C7.31369016,9.47044371 7.29217529,9.56153871 7.27592467,9.65332031 C7.19833371,10.0902557 7.23197936,10.5214691 7.35534668,10.918808 L7.33268736,10.918808 C7.05093387,10.4097748 6.5110016,10.0827026 5.91567996,10.0827026 L5.91545104,10.0827026 C5.48263547,10.0827026 5.07591246,10.2513885 4.76989746,10.5574036 C4.46411133,10.8634186 4.2956543,11.2701416 4.2956543,11.7029572 L4.29588316,13.9425659 L3.19038393,13.9425659 L3.18992613,3.94386293 C3.18992613,3.54927064 3.03634641,3.1782532 2.75733949,2.8994751 C2.47833252,2.62046812 2.10754395,2.4668884 1.71295166,2.4668884 C1.47033691,2.4668884 1.27349854,2.66372684 1.27349854,2.90657045 C1.27349854,3.1491852 1.47033691,3.34579465 1.71295166,3.34579465 Z M16.6090393,17.2267914 C16.5818024,17.2689056 16.5357971,17.2938538 16.4859009,17.2938538 L11.1003113,17.2943115 L11.1003113,15.4156494 L11.3440704,15.586853 C11.5331268,15.7193756 11.7576599,15.7898712 11.9867706,15.7898712 C12.0243073,15.7898712 12.0623016,15.7880402 12.1000671,15.7841491 L14.7374725,15.5154419 C14.8022461,15.5088043 14.866333,15.4964447 14.9285889,15.4785919 C15.0922394,15.5969238 15.2879333,15.6733704 15.5010223,15.6941986 L15.4502106,15.8022308 C15.346756,16.0217285 15.4410553,16.2835693 15.660553,16.3867951 C15.7212067,16.4151764 15.7848358,16.4289093 15.8475495,16.4289093 C16.0123444,16.4289093 16.1705017,16.3355255 16.2453461,16.1762238 L16.4563751,15.7276154 C16.7003631,15.6971741 16.9223786,15.5685425 17.0702362,15.3723908 L17.6156616,15.6630707 L16.6090393,17.2267914 Z M16.6113281,14.2728424 C16.6170502,14.2730713 16.6278076,14.273529 16.6360474,14.2879486 C16.6442871,14.3021393 16.6394806,14.3117523 16.6369629,14.3167877 L16.37146,14.8397827 C16.3661957,14.8503113 16.3549805,14.8574066 16.3433075,14.8562622 L15.6019593,14.82193 C15.4380798,14.8143768 15.3108216,14.6749878 15.3183746,14.5111084 C15.3259277,14.347229 15.4671478,14.2208862 15.6294251,14.2275238 L16.6113281,14.2728424 Z M12.1696472,14.4099427 C12.1845246,14.4099427 12.199173,14.4090271 12.2140503,14.4076538 L14.4932556,14.1755677 C14.4641876,14.2694092 14.4449616,14.3678284 14.4403839,14.4705963 C14.4374085,14.5355988 14.4410706,14.598999 14.4483948,14.6614837 L12.0108032,14.9098206 C11.9535827,14.9153137 11.8961334,14.9006653 11.8489838,14.8674774 L10.1000977,13.6397552 C9.90142822,13.5003662 9.62745668,13.5482025 9.48783873,13.7468719 C9.34844971,13.9455414 9.39651492,14.219513 9.5951843,14.3591309 L10.2211761,14.798584 L10.221405,17.2943115 L8.54370117,17.2943115 C8.50479129,17.2943115 8.46794127,17.2792054 8.44024658,17.2515106 L7.43911746,16.2503815 C7.43865967,16.235733 7.43751527,16.2213135 7.43751527,16.206665 L7.43728641,13.8194275 C7.76115416,13.7704468 8.07266238,13.6418152 8.33724973,13.4429169 C8.41186523,13.3859253 8.48144531,13.3255005 8.54370117,13.2630158 C8.71513365,13.0913544 8.71513365,12.813263 8.5434723,12.6416016 C8.3718109,12.4699402 8.09349059,12.4699402 7.92205811,12.6418304 C7.88726807,12.6766205 7.84767152,12.7111816 7.80647279,12.7425384 C7.61695863,12.8851318 7.38212584,12.9636383 7.14546205,12.9636383 L7.02095033,12.9636383 C6.58126828,12.9279328 6.23771666,12.5566864 6.23771666,12.1140289 C6.23771666,11.939621 6.3796234,11.7977142 6.55403139,11.7977142 L7.81860352,11.7977142 C8.21388246,12.2973633 8.78562926,12.6603698 9.4608307,12.7800751 C9.56085205,12.7976989 9.66041566,12.8091431 9.75975035,12.8155518 C9.76066588,12.8160095 9.76135254,12.8169251 9.76226807,12.8176117 L11.9169616,14.3300629 C11.9913483,14.3822479 12.0796966,14.4099427 12.1696472,14.4099427 Z M9.61441043,11.9146729 C8.66615297,11.7464447 8.0195618,10.8675384 8.12484738,9.92385867 L11.6750336,10.6395721 C11.4170837,11.5152741 10.5340576,12.0778656 9.61441043,11.9146729 Z M8.10424805,8.76731871 C8.58055113,7.92068484 9.54116824,7.48031613 10.4942321,7.67303467 C11.447525,7.86506654 12.1625519,8.64257813 12.2737884,9.60777281 C12.2831726,9.68902588 12.2399139,9.74212646 12.2133636,9.76661684 C12.1907044,9.78744504 12.1279907,9.83436586 12.0378113,9.81605531 L8.24111941,9.05067445 C8.15093994,9.03236391 8.1113434,8.96530148 8.09852602,8.93714906 C8.08341979,8.90441895 8.06419371,8.83850098 8.10424805,8.76731871 Z M5.39154053,11.1788177 C5.53161621,11.0387421 5.71746826,10.9618378 5.91567996,10.9618378 C5.9918976,10.9618378 6.06605531,10.9737396 6.13632199,10.9957123 C5.68290709,11.1655426 5.35903934,11.6020202 5.35903934,12.1140289 C5.35903934,12.8764343 5.86074832,13.5351562 6.55860902,13.7617493 L6.55860902,15.369873 L5.43159486,14.2428589 C5.35491943,14.1664124 5.2681732,14.1039276 5.17478941,14.0558624 L5.17456055,11.7029572 C5.17456055,11.5049743 5.25169371,11.3188934 5.39154053,11.1788177 Z" id="Shape"></path>
                    <path d="M28.6871338,22.9460907 L28.6871338,21.9275665 C28.6871338,21.3709259 28.2341766,20.9181976 27.677536,20.9181976 L26.7697907,20.9181976 C27.3060608,20.2684021 27.6448059,19.4750977 27.7359009,18.6264038 C27.8954315,18.5584259 28.0421448,18.4600067 28.1682587,18.3338929 C28.4275818,18.0745697 28.5701752,17.7298737 28.5701752,17.3632049 C28.5701752,16.6062927 27.954483,15.9903717 27.1973419,15.9903717 L27.1820068,15.9903717 C26.8574524,15.4268646 26.4065552,14.9388885 25.8698273,14.5731354 C25.5869293,14.3804169 25.2889252,14.1984558 24.9840546,14.0322876 C24.7709655,13.9160156 24.5040894,13.994751 24.3880462,14.20784 C24.2717743,14.420929 24.3502808,14.6878052 24.5635986,14.8040771 C24.8428345,14.9562836 25.1158905,15.1229095 25.3747559,15.2996063 C25.6560516,15.4911804 25.907135,15.7253265 26.1199951,15.9906006 L25.1687622,15.9906006 C24.8020935,15.9906006 24.4571686,16.1334229 24.1980744,16.392746 C23.9387512,16.6520691 23.795929,16.9967651 23.795929,17.3634339 C23.795929,18.1203461 24.41185,18.7360382 25.1689911,18.7360382 L26.8336487,18.7360382 C26.7972565,18.9534759 26.7393493,19.1649628 26.6631317,19.3691254 L2.72186279,19.3704987 L2.72186279,18.5609436 C2.72186279,18.3181 2.52525328,18.1214905 2.28240967,18.1214905 C2.03979492,18.1214905 1.84295654,18.3183288 1.84295654,18.5609436 L1.84318541,21.0257721 C1.51268004,21.1917114 1.28471373,21.5332031 1.28471373,21.9275665 L1.28471373,22.957077 C0.53169252,23.2672119 0,24.0085602 0,24.8721313 C0,26.0137939 0.928802461,26.9423675 2.07023619,26.9423675 L4.4478607,26.9423675 C4.69070438,26.9423675 4.88731383,26.7457581 4.88731383,26.5029144 C4.88731383,26.2602997 4.69070438,26.0634613 4.4478607,26.0634613 L2.07023619,26.0634613 C1.41334535,26.0634613 0.87890625,25.5290222 0.87890625,24.8721313 C0.87890625,24.2152405 1.41334535,23.6808014 2.07023619,23.6808014 L27.9297638,23.6808014 C28.5866546,23.6808014 29.1210938,24.2152405 29.1210938,24.8721313 C29.1210938,25.5290222 28.5866546,26.0634613 27.9297638,26.0634613 L6.4505768,26.0634613 C6.20773312,26.0634613 6.01112367,26.2602997 6.01112367,26.5029144 C6.01112367,26.7457581 6.20773312,26.9423675 6.4505768,26.9423675 L27.9297638,26.9423675 C29.0711975,26.9423675 30,26.0137939 30,24.8721313 C30,23.9978027 29.4550324,23.2489014 28.6871338,22.9460907 Z M27.8082275,21.9275665 L27.8082275,22.8018952 L2.16361998,22.8018952 L2.16361998,21.9275665 C2.16361998,21.8556976 2.22221373,21.7971039 2.29408266,21.7971039 L27.677536,21.7971039 C27.7496338,21.7971039 27.8082275,21.8556976 27.8082275,21.9275665 Z M24.6750641,17.3634339 C24.6750641,17.231369 24.7263336,17.1075439 24.8197174,17.0141602 C24.9128723,16.9207764 25.0369263,16.8695068 25.1687622,16.8695068 L27.1975708,16.869278 C27.4697113,16.869278 27.6912689,17.0908356 27.6912689,17.3632049 C27.6912689,17.4950409 27.6399994,17.6190949 27.5468445,17.7124787 C27.4534607,17.8058624 27.3294067,17.857132 27.1975708,17.857132 L25.1689911,17.8573608 C24.8966217,17.8573608 24.6750641,17.6358032 24.6750641,17.3634339 Z M26.1806488,20.2482605 C25.9911346,20.4979706 25.7663727,20.723877 25.5102539,20.9181976 L2.72209166,20.9181976 L2.72209166,20.2494049 L26.1806488,20.2482605 Z" id="Shape"></path>
                    <path d="M3.81362918,2.45841979 C3.92486572,2.45841979 4.03633119,2.41630553 4.12193297,2.33207701 L4.58908078,1.87202455 C4.76188658,1.70173646 4.76394656,1.42341615 4.59365848,1.25061035 C4.42337039,1.07780455 4.14505008,1.07551576 3.97224428,1.24580385 L3.50509641,1.70608523 C3.33229066,1.87637332 3.33023074,2.15446471 3.50051883,2.32749938 C3.58634947,2.4147034 3.69987486,2.45841979 3.81362918,2.45841979 Z" id="Shape"></path>
                    <path d="M2.39364621,1.52458189 C2.43278502,1.53533936 2.4721527,1.54037473 2.51083371,1.54037473 C2.70355225,1.54037473 2.88047789,1.41265869 2.93426514,1.21788023 L3.10867313,0.585708633 C3.17321777,0.351791367 3.03588867,0.109863281 2.80197141,0.0453186328 C2.5680542,-0.0192260742 2.32612611,0.11787416 2.26158141,0.351791367 L2.08694461,0.983734102 C2.0223999,1.21788023 2.159729,1.45980832 2.39364621,1.52458189 Z" id="Shape"></path>
                    <path d="M4.28649902,3.44604492 C4.33799742,3.6440277 4.51629639,3.77517703 4.71153258,3.77517703 C4.74815367,3.77517703 4.78523256,3.77059934 4.82231139,3.76098633 L5.4570007,3.59596254 C5.6918335,3.53485107 5.83282471,3.29498291 5.77171324,3.06015012 C5.7108307,2.82531738 5.47050475,2.6840973 5.23590088,2.74543764 L4.60144043,2.91023256 C4.36637877,2.97134402 4.22538756,3.21121219 4.28649902,3.44604492 Z" id="Shape"></path>
                    <path d="M19.1269684,17.1885681 C19.1255951,17.1885681 19.1242218,17.1885681 19.1230774,17.1885681 C18.8820648,17.1885681 18.6856842,17.3828888 18.6836243,17.6241302 C18.6813354,17.8669739 18.8763428,18.0654144 19.1191864,18.0674743 L19.1255951,18.0677033 L19.1294861,18.0677033 C19.3704987,18.0677033 19.5666504,17.8733825 19.5689392,17.6321411 C19.5709992,17.3892975 19.3759918,17.1908569 19.1333771,17.188797 L19.1269684,17.1885681 Z" id="Shape"></path>
                    <path d="M20.394516,17.1885681 C20.3931427,17.1885681 20.3917694,17.1885681 20.390625,17.1885681 C20.1496124,17.1885681 19.9532318,17.3828888 19.9511719,17.6241302 C19.949112,17.8669739 20.1438904,18.0654144 20.386734,18.0674743 L20.3931427,18.0677033 L20.3970337,18.0677033 C20.6380462,18.0677033 20.834198,17.8733825 20.8364868,17.6321411 C20.8385467,17.3892975 20.6435394,17.1908569 20.4009247,17.188797 L20.394516,17.1885681 Z" id="Shape"></path>
                </g>
            </g>
        </g>
    </g>
</svg>