<?xml version="1.0" encoding="UTF-8" standalone="no"?>
<svg width="18px" height="30px" viewBox="0 0 18 30" version="1.1" xmlns="http://www.w3.org/2000/svg" xmlns:xlink="http://www.w3.org/1999/xlink">
    <!-- Generator: Sketch 50.2 (55047) - http://www.bohemiancoding.com/sketch -->
    <title>splash</title>
    <desc>Created with Sketch.</desc>
    <defs></defs>
    <g id="Page-1" stroke="none" stroke-width="1" fill="none" fill-rule="evenodd">
        <g id="website-copy-3" transform="translate(-814.000000, -1172.000000)" fill="#979797" fill-rule="nonzero">
            <g id="Group-17-Copy-2" transform="translate(785.000000, 1142.000000)">
                <g id="splash" transform="translate(29.000000, 30.000000)">
                    <path d="M15.6874286,0 L2.31257143,0 C1.19828571,0 0.286285714,0.911142857 0.286285714,2.02628571 L0.286285714,27.9728571 C0.286285714,29.088 1.19828571,30 2.31257143,30 L15.6874286,30 C16.8017143,30 17.7137143,29.0897143 17.7137143,27.9737143 L17.7137143,2.02628571 C17.7137143,0.911142857 16.8017143,0 15.6874286,0 Z M6.86057143,1.46057143 L11.1394286,1.46057143 C11.2748571,1.46057143 11.3845714,1.57028571 11.3845714,1.70657143 C11.3845714,1.842 11.2748571,1.95171429 11.1394286,1.95171429 L6.86057143,1.95171429 C6.72514286,1.95171429 6.61542857,1.842 6.61542857,1.70657143 C6.61542857,1.57028571 6.72514286,1.46057143 6.86057143,1.46057143 Z M9,28.9868571 C8.44114286,28.9868571 7.98685714,28.5334286 7.98685714,27.9728571 C7.98685714,27.4122857 8.44028571,26.9597143 9,26.9597143 C9.55971429,26.9597143 10.0131429,27.4122857 10.0131429,27.9728571 C10.0131429,28.5334286 9.55885714,28.9868571 9,28.9868571 Z M16.3037143,26.25 L1.69628571,26.25 L1.69628571,3.21342857 L16.3037143,3.21342857 L16.3037143,26.25 Z M9,19.4477143 C7.05942857,19.4477143 5.23628571,18.6925714 3.86571429,17.322 C3.66857143,17.1231429 3.66857143,16.8017143 3.86571429,16.6028571 C4.06457143,16.4048571 4.386,16.4048571 4.58571429,16.6028571 C5.76428571,17.7822857 7.33285714,18.432 9,18.432 C10.6671429,18.432 12.2357143,17.7822857 13.4142857,16.6028571 C13.6114286,16.4048571 13.9328571,16.4048571 14.1342857,16.6028571 C14.3314286,16.8008571 14.3314286,17.1222857 14.1342857,17.322 C12.7637143,18.6934286 10.9405714,19.4477143 9,19.4477143 Z M7.85485714,11.1531429 C7.85485714,11.8337143 7.302,12.3857143 6.62142857,12.3857143 C5.94171429,12.3857143 5.38885714,11.8337143 5.38885714,11.1531429 C5.38885714,10.4717143 5.94171429,9.92057143 6.62142857,9.92057143 C7.30285714,9.91971429 7.85485714,10.4717143 7.85485714,11.1531429 Z M12.6111429,11.1531429 C12.6111429,11.8337143 12.0582857,12.3857143 11.3785714,12.3857143 C10.6988571,12.3857143 10.146,11.8337143 10.146,11.1531429 C10.146,10.4717143 10.6997143,9.92057143 11.3785714,9.92057143 C12.0565714,9.92057143 12.6111429,10.4717143 12.6111429,11.1531429 Z" id="Shape"></path>
                </g>
            </g>
        </g>
    </g>
</svg>