<?xml version="1.0" encoding="UTF-8" standalone="no"?>
<svg width="30px" height="30px" viewBox="0 0 30 30" version="1.1" xmlns="http://www.w3.org/2000/svg" xmlns:xlink="http://www.w3.org/1999/xlink">
    <!-- Generator: Sketch 50.2 (55047) - http://www.bohemiancoding.com/sketch -->
    <title>tracking</title>
    <desc>Created with Sketch.</desc>
    <defs></defs>
    <g id="Page-1" stroke="none" stroke-width="1" fill="none" fill-rule="evenodd">
        <g id="website-copy-3" transform="translate(-428.000000, -1172.000000)" fill="#979797" fill-rule="nonzero">
            <g id="Group-17-Copy" transform="translate(405.000000, 1142.000000)">
                <g id="tracking" transform="translate(23.000000, 30.000000)">
                    <path d="M17.7465,12 L18.7465,12 C19.023,12 19.2465,11.7765 19.2465,11.5 C19.2465,11.2235 19.023,11 18.7465,11 L17.7465,11 C17.47,11 17.2465,11.2235 17.2465,11.5 C17.2465,11.7765 17.47,12 17.7465,12 Z" id="Shape"></path>
                    <path d="M15.9975,15.5 C15.781,15.4995 15.5705,15.461 15.3715,15.385 C15.1155,15.2875 14.825,15.416 14.726,15.674 C14.628,15.932 14.7575,16.221 15.015,16.3195 C15.328,16.4385 15.6575,16.4995 15.9965,16.5 L16.175,16.5 C16.4515,16.5 16.675,16.2765 16.675,16 C16.675,15.7235 16.4515,15.5 16.175,15.5 L15.9975,15.5 Z" id="Shape"></path>
                    <path d="M14.8105,12.338 C14.901,12.338 14.992,12.3135 15.0745,12.2625 C15.296,12.1245 15.541,12.04 15.8015,12.011 C16.076,11.9805 16.274,11.7335 16.244,11.459 C16.214,11.1845 15.9685,10.9885 15.692,11.0165 C15.281,11.062 14.895,11.195 14.545,11.4135 C14.3105,11.5595 14.2395,11.868 14.3855,12.1025 C14.4805,12.2545 14.6435,12.338 14.8105,12.338 Z" id="Shape"></path>
                    <path d="M17.9965,20 C17.9535,20 17.911,20.001 17.8685,20.003 C17.5925,20.014 17.3785,20.247 17.3895,20.523 C17.4,20.792 17.622,21.0025 17.8885,21.0025 C17.8955,21.0025 17.9025,21.0025 17.9095,21.002 L18.889,21 C19.1655,21 19.389,20.7765 19.389,20.5 C19.389,20.2235 19.1655,20 18.889,20 L17.9965,20 Z" id="Shape"></path>
                    <path d="M21.7465,12 C22.023,12 22.2465,11.7765 22.2465,11.5 C22.2465,11.2235 22.023,11 21.7465,11 L20.7465,11 C20.47,11 20.2465,11.2235 20.2465,11.5 C20.2465,11.7765 20.47,12 20.7465,12 L21.7465,12 Z" id="Shape"></path>
                    <path d="M23.889,20 C23.6125,20 23.389,20.2235 23.389,20.5 C23.389,20.7765 23.6125,21 23.889,21 L24.889,21 C25.1655,21 25.389,20.7765 25.389,20.5 C25.389,20.2235 25.1655,20 24.889,20 L23.889,20 Z" id="Shape"></path>
                    <path d="M25.6755,16 C25.6755,15.7235 25.452,15.5 25.1755,15.5 L24.1755,15.5 C23.899,15.5 23.6755,15.7235 23.6755,16 C23.6755,16.2765 23.899,16.5 24.1755,16.5 L25.1755,16.5 C25.4515,16.5 25.6755,16.2765 25.6755,16 Z" id="Shape"></path>
                    <path d="M20.889,21 L21.889,21 C22.1655,21 22.389,20.7765 22.389,20.5 C22.389,20.2235 22.1655,20 21.889,20 L20.889,20 C20.6125,20 20.389,20.2235 20.389,20.5 C20.389,20.7765 20.613,21 20.889,21 Z" id="Shape"></path>
                    <path d="M22.6755,16 C22.6755,15.7235 22.452,15.5 22.1755,15.5 L21.1755,15.5 C20.899,15.5 20.6755,15.7235 20.6755,16 C20.6755,16.2765 20.899,16.5 21.1755,16.5 L22.1755,16.5 C22.4515,16.5 22.6755,16.2765 22.6755,16 Z" id="Shape"></path>
                    <path d="M18.1755,15.5 C17.899,15.5 17.6755,15.7235 17.6755,16 C17.6755,16.2765 17.899,16.5 18.1755,16.5 L19.1755,16.5 C19.452,16.5 19.6755,16.2765 19.6755,16 C19.6755,15.7235 19.452,15.5 19.1755,15.5 L18.1755,15.5 Z" id="Shape"></path>
                    <path d="M12.032,29 L11.032,29 C10.7555,29 10.532,29.2235 10.532,29.5 C10.532,29.7765 10.7555,30 11.032,30 L12.032,30 C12.3085,30 12.532,29.7765 12.532,29.5 C12.532,29.2235 12.308,29 12.032,29 Z" id="Shape"></path>
                    <path d="M9.032,29 L8.032,29 C7.7555,29 7.532,29.2235 7.532,29.5 C7.532,29.7765 7.7555,30 8.032,30 L9.032,30 C9.3085,30 9.532,29.7765 9.532,29.5 C9.532,29.2235 9.308,29 9.032,29 Z" id="Shape"></path>
                    <path d="M26.302,27.2585 C26.0325,27.198 25.765,27.367 25.7045,27.6365 C25.647,27.8915 25.5355,28.126 25.373,28.3325 C25.2025,28.5495 25.2395,28.864 25.457,29.0345 C25.549,29.1065 25.6575,29.1415 25.7655,29.1415 C25.914,29.1415 26.0605,29.076 26.159,28.9505 C26.411,28.6305 26.591,28.2525 26.68,27.8565 C26.7405,27.5865 26.5715,27.319 26.302,27.2585 Z" id="Shape"></path>
                    <path d="M25.7655,26.3595 C25.8735,26.3595 25.983,26.3245 26.074,26.2525 C26.2915,26.0815 26.3285,25.767 26.158,25.5505 C25.9065,25.231 25.582,24.967 25.2185,24.7865 C24.97,24.663 24.671,24.7645 24.548,25.0115 C24.425,25.259 24.526,25.559 24.773,25.682 C25.0045,25.7965 25.2115,25.965 25.3715,26.169 C25.4705,26.294 25.617,26.3595 25.7655,26.3595 Z" id="Shape"></path>
                    <path d="M23.5325,25 C23.5325,24.7235 23.309,24.5 23.0325,24.5 L22.0325,24.5 C21.756,24.5 21.5325,24.7235 21.5325,25 C21.5325,25.2765 21.756,25.5 22.0325,25.5 L23.0325,25.5 C23.3085,25.5 23.5325,25.2765 23.5325,25 Z" id="Shape"></path>
                    <path d="M23.9965,29 L23.0315,29 C22.755,29 22.5315,29.2235 22.5315,29.5 C22.5315,29.7765 22.755,30 23.0315,30 L24.017,29.9995 L24.0315,29.4995 L24.0315,29.9995 C24.308,29.9995 24.514,29.776 24.514,29.4995 C24.514,29.2235 24.273,29 23.9965,29 Z" id="Shape"></path>
                    <path d="M29.713,17.816 C29.669,17.543 29.4115,17.3565 29.14,17.4015 C28.867,17.445 28.6815,17.702 28.7255,17.9745 C28.7395,18.0635 28.7475,18.154 28.7465,18.2505 C28.7465,18.4185 28.7225,18.5845 28.6755,18.7445 C28.598,19.0095 28.7495,19.2875 29.015,19.365 C29.062,19.3785 29.109,19.385 29.1555,19.385 C29.372,19.385 29.5715,19.244 29.6355,19.0255 C29.709,18.774 29.7465,18.5135 29.7465,18.254 C29.7475,18.11 29.7365,17.9625 29.713,17.816 Z" id="Shape"></path>
                    <path d="M14.0145,14.9275 C14.2765,14.841 14.4195,14.5585 14.3335,14.296 C14.276,14.1205 14.2465,13.937 14.2465,13.752 C14.247,13.6765 14.2515,13.601 14.2605,13.5275 C14.295,13.2535 14.101,13.003 13.827,12.969 C13.5445,12.9375 13.3025,13.1295 13.2685,13.4025 C13.2545,13.5155 13.247,13.6305 13.2465,13.7495 C13.2465,14.0435 13.2925,14.3325 13.383,14.6085 C13.4525,14.819 13.648,14.9525 13.858,14.9525 C13.91,14.9525 13.963,14.945 14.0145,14.9275 Z" id="Shape"></path>
                    <path d="M28.373,15.869 C28.016,15.662 27.626,15.5405 27.2145,15.508 C26.94,15.488 26.6985,15.6915 26.677,15.9675 C26.6555,16.243 26.861,16.4835 27.1365,16.505 C27.3975,16.5255 27.645,16.6025 27.8715,16.734 C27.9505,16.78 28.037,16.8015 28.122,16.8015 C28.2945,16.8015 28.4625,16.712 28.555,16.5525 C28.6935,16.314 28.612,16.008 28.373,15.869 Z" id="Shape"></path>
                    <path d="M27.6725,19.8645 C27.458,19.9545 27.231,20 26.9965,20 L26.889,20 C26.6125,20 26.389,20.2235 26.389,20.5 C26.389,20.7765 26.6125,21 26.889,21 L26.9965,21 C27.3645,21 27.722,20.928 28.059,20.7865 C28.314,20.6795 28.4335,20.3865 28.3265,20.132 C28.22,19.8775 27.925,19.7575 27.6725,19.8645 Z" id="Shape"></path>
                    <path d="M16.2775,22.4195 C16.327,22.1625 16.431,21.925 16.587,21.713 C16.7505,21.491 16.703,21.178 16.4805,21.014 C16.258,20.851 15.9455,20.898 15.7815,21.1205 C15.537,21.4535 15.373,21.827 15.295,22.2315 C15.243,22.5025 15.4205,22.7645 15.692,22.817 C15.7235,22.823 15.7555,22.826 15.7865,22.826 C16.0215,22.825 16.231,22.6585 16.2775,22.4195 Z" id="Shape"></path>
                    <path d="M17.061,25.297 C17.251,25.297 17.432,25.1885 17.516,25.005 C17.6305,24.7535 17.5205,24.457 17.2695,24.3425 C17.035,24.235 16.8225,24.0735 16.6555,23.8745 C16.4775,23.663 16.1625,23.6355 15.951,23.8135 C15.7395,23.991 15.712,24.3065 15.89,24.518 C16.152,24.8295 16.485,25.0835 16.8535,25.2515 C16.921,25.282 16.9915,25.297 17.061,25.297 Z" id="Shape"></path>
                    <path d="M15.032,29 L14.032,29 C13.7555,29 13.532,29.2235 13.532,29.5 C13.532,29.7765 13.7555,30 14.032,30 L15.032,30 C15.3085,30 15.532,29.7765 15.532,29.5 C15.532,29.2235 15.308,29 15.032,29 Z" id="Shape"></path>
                    <path d="M18.032,29 L17.032,29 C16.7555,29 16.532,29.2235 16.532,29.5 C16.532,29.7765 16.7555,30 17.032,30 L18.032,30 C18.3085,30 18.532,29.7765 18.532,29.5 C18.532,29.2235 18.308,29 18.032,29 Z" id="Shape"></path>
                    <path d="M20.5325,25 C20.5325,24.7235 20.309,24.5 20.0325,24.5 L19.0325,24.5 C18.756,24.5 18.5325,24.7235 18.5325,25 C18.5325,25.2765 18.756,25.5 19.0325,25.5 L20.0325,25.5 C20.3085,25.5 20.5325,25.2765 20.5325,25 Z" id="Shape"></path>
                    <path d="M21.032,29 L20.032,29 C19.7555,29 19.532,29.2235 19.532,29.5 C19.532,29.7765 19.7555,30 20.032,30 L21.032,30 C21.3085,30 21.532,29.7765 21.532,29.5 C21.532,29.2235 21.308,29 21.032,29 Z" id="Shape"></path>
                    <path d="M10.5105,14.4885 C9.375,13.206 7.861,12.5 6.2465,12.5 C4.632,12.5 3.118,13.206 1.983,14.4885 C-0.323,17.094 -0.323,21.3325 1.983,23.938 L6.2465,28.7545 L10.51,23.938 C12.8165,21.3325 12.8165,17.094 10.5105,14.4885 Z M6.2465,21.5 C4.592,21.5 3.2465,20.1545 3.2465,18.5 C3.2465,16.8455 4.592,15.5 6.2465,15.5 C7.901,15.5 9.2465,16.8455 9.2465,18.5 C9.2465,20.1545 7.901,21.5 6.2465,21.5 Z" id="Shape"></path>
                    <path d="M24.3735,12.2535 L27.6055,8.6105 C29.3445,6.6505 29.3445,3.4625 27.6055,1.5025 C26.7455,0.5335 25.5975,0 24.373,0 C23.149,0 22.001,0.5335 21.141,1.5025 C19.4025,3.4625 19.4025,6.6505 21.141,8.6105 L24.3735,12.2535 Z M24.4965,2 C26.0125,2 27.2465,3.234 27.2465,4.75 C27.2465,6.266 26.0125,7.5 24.4965,7.5 C22.9805,7.5 21.7465,6.266 21.7465,4.75 C21.7465,3.234 22.9805,2 24.4965,2 Z" id="Shape"></path>
                </g>
            </g>
        </g>
    </g>
</svg>