<?xml version="1.0" encoding="UTF-8" standalone="no"?>
<svg width="23px" height="27px" viewBox="0 0 23 27" version="1.1" xmlns="http://www.w3.org/2000/svg" xmlns:xlink="http://www.w3.org/1999/xlink">
    <!-- Generator: Sketch 50.2 (55047) - http://www.bohemiancoding.com/sketch -->
    <title>Trips-Daily Copy</title>
    <desc>Created with Sketch.</desc>
    <defs></defs>
    <g id="Page-1" stroke="none" stroke-width="1" fill="none" fill-rule="evenodd">
        <g id="website-copy-3" transform="translate(-759.000000, -4183.000000)" fill="#FFFFFF" fill-rule="nonzero">
            <g id="Our-fun-facts" transform="translate(0.000000, 3880.000000)">
                <g id="Group-7" transform="translate(759.000000, 289.000000)">
                    <g id="Trips-Daily-Copy" transform="translate(0.000000, 14.000000)">
                        <path d="M22.6695586,16.4756953 C22.4557734,16.3397461 22.1733809,16.404293 22.0378535,16.6180781 C21.659748,17.215875 21.2317559,17.7688477 20.7648457,18.2769434 L20.0091094,17.521207 C19.8301289,17.3422266 19.5408281,17.3422266 19.3618477,17.521207 C19.1828672,17.7001875 19.1828672,17.9894883 19.3618477,18.1684687 L20.1194297,18.9260508 C20.169791,18.9764121 18.4779668,20.1935215 18.3177598,20.291502 C17.6595293,20.6938652 16.9610098,21.0289395 16.2350156,21.2893945 C12.7602949,22.5371953 8.80906641,22.0048418 5.79208008,19.8831797 C3.1540957,18.0279316 1.37942578,15.0850898 0.998578125,11.8804746 C0.945,11.4295957 0.918,10.9750781 0.918,10.5209824 C0.918,7.59554297 2.02072852,4.85092969 3.95650195,2.76312305 L4.71408398,3.52070508 C4.80336328,3.60998437 4.92053906,3.65480859 5.03771484,3.65480859 C5.15489062,3.65480859 5.27206641,3.60993164 5.3613457,3.52070508 C5.54032617,3.34172461 5.54032617,3.05242383 5.3613457,2.87344336 L4.60560937,2.11770703 C5.11370508,1.650375 5.66620312,1.22280469 6.26447461,0.844699219 C6.47825977,0.709646484 6.54143555,0.427253906 6.40685742,0.21346875 C6.27138281,-0.00031640625 5.9889375,-0.0643886719 5.77515234,0.0710859375 C5.11918945,0.485789062 4.51358789,0.955441406 3.95745117,1.46902148 L3.0730957,0.584666016 C2.89411523,0.405685547 2.60481445,0.405685547 2.42583398,0.584666016 C2.24685352,0.763646484 2.24685352,1.05294727 2.42583398,1.23192773 L3.30834375,2.1144375 C1.20223828,4.37157422 0.002953125,7.34827148 0.002953125,10.520877 C0.002953125,16.8711504 4.81839258,22.1164277 10.9887891,22.8016582 L10.9887891,24.2526973 L10.5310547,24.2526973 C10.2784043,24.2526973 10.0733203,24.4573066 10.0733203,24.7104316 L10.0733203,26.0836875 L6.41144531,26.0836875 C6.15879492,26.0836875 5.95371094,26.2882969 5.95371094,26.5414219 C5.95371094,26.7945469 6.15879492,26.9991562 6.41144531,26.9991562 L10.5311602,26.9991562 L14.1930879,26.9991562 L18.3128027,26.9991562 C18.5654531,26.9991562 18.7705371,26.7945469 18.7705371,26.5414219 C18.7705371,26.2882969 18.5654531,26.0836875 18.3128027,26.0836875 L14.650875,26.0836875 L14.650875,24.7104316 C14.650875,24.4573066 14.445791,24.2526973 14.1931406,24.2526973 L13.7354062,24.2526973 L13.7354062,22.798916 C16.3871016,22.505502 18.8401465,21.3726094 20.7686426,19.5736289 L21.6511523,20.4561387 C21.7404316,20.545418 21.8576074,20.5902422 21.9747832,20.5902422 C22.091959,20.5902422 22.2091348,20.5453652 22.2984141,20.4561387 C22.4773945,20.2771582 22.4773945,19.9878574 22.2984141,19.808877 L21.4140586,18.9245215 C21.9281133,18.3688066 22.3977656,17.7623086 22.8124687,17.1063457 C22.9469414,16.8931406 22.8833437,16.6106953 22.6695586,16.4756953 Z M11.9038887,24.25275 L11.9038887,22.8694219 C12.2238281,22.8836074 12.5007891,22.8831328 12.8193574,22.8698965 L12.8193574,24.25275 L11.9038887,24.25275 Z" id="Shape"></path>
                        <path d="M7.07742773,2.49755273 C5.25608789,3.70279688 3.86500781,5.50720898 3.19438477,7.63113867 C3.18890039,7.64854102 3.1824668,7.66594336 3.17698242,7.6833457 C3.09276563,7.95571875 3.02273438,8.23357617 2.96230078,8.51554688 C2.95359961,8.55673242 2.94442383,8.59749609 2.93619727,8.63868164 C2.8940625,8.84972461 2.86569141,9.06577734 2.83779492,9.28135547 L4.97090039,8.43544336 C5.20161328,8.34342188 5.32063477,8.0866582 5.24190234,7.85135742 C5.07483984,7.3505918 5.20298438,6.80769141 5.57608008,6.43375195 L6.8952832,5.11454883 C7.17266602,4.83764063 7.32554297,4.4686582 7.32554297,4.07594531 L7.32554297,3.47988867 C7.32554297,3.13843359 7.23900586,2.80103906 7.07742773,2.49755273 Z" id="Shape"></path>
                        <path d="M20.601,11.8900195 C20.2141934,11.8140293 19.876377,11.5764609 19.6740879,11.2391191 L19.4255508,10.824416 L18.7590937,13.824 C18.7467539,13.8793711 18.7242891,13.9315781 18.6931758,13.9787227 C17.6710254,15.5117109 14.5450898,15.5556387 14.1921914,15.5556387 C13.939541,15.5556387 13.734457,15.3510293 13.734457,15.0983789 C13.734457,14.8452539 13.9390664,14.6406445 14.1917168,14.6401699 C14.9968652,14.6392734 17.1904043,14.4369316 17.8848105,13.5346992 L18.6263613,10.1972988 C18.6927539,9.89977148 18.9298477,9.67549219 19.2305918,9.62697656 C19.5308613,9.58030664 19.8270176,9.71530664 19.9840605,9.97760742 L20.4587227,10.7685703 C20.5292285,10.8862207 20.642291,10.9658496 20.7768691,10.9919531 C20.9114473,11.0194277 21.0460254,10.9878398 21.1558711,10.905416 L21.9623906,10.3007637 C21.9056484,7.79872852 20.8235391,5.3694668 19.0355801,3.62090039 C18.6538359,3.24738281 18.2405039,2.90682422 17.8005937,2.6038125 C17.7662637,2.5800293 17.7328301,2.55482227 17.6980781,2.53151367 C17.4962109,2.39646094 17.2865918,2.27242969 17.0746523,2.15251172 C17.1643535,2.99615625 17.1396738,4.19544141 16.4548652,4.80378516 C16.759248,5.32195313 16.9382285,5.93077148 16.9382285,6.58441406 C16.9382285,8.19202148 14.7753809,10.5557871 14.1844395,11.1714609 C14.1464707,11.8892285 13.8791074,12.5066953 13.3998574,12.9603164 C13.3128984,13.0381523 13.1984648,13.0839258 13.0840313,13.0839258 C12.9558867,13.0839258 12.8368652,13.0340391 12.7499063,12.9420176 C12.5759883,12.7630371 12.5851113,12.4705195 12.7636172,12.2966016 C13.0785469,11.990373 13.2286816,11.6260312 13.2625371,11.1490488 C12.64275,10.5008906 10.5297891,8.17372266 10.5297891,6.58441406 C10.5297891,4.71635156 11.9671172,3.19712695 13.7339824,3.19712695 C14.5666055,3.19712695 15.323291,3.53721094 15.8936133,4.08928711 C16.3133789,3.64573828 16.2177188,2.38601953 16.0744395,1.65591211 C14.931,1.17529102 13.6767656,0.908402344 12.3607793,0.908402344 C10.7362441,0.908402344 9.20647266,1.31714648 7.86301172,2.03122266 C8.10791016,2.47524609 8.24111719,2.97464063 8.24111719,3.48136523 L8.24111719,4.07736914 C8.24201367,4.71360938 7.99395117,5.31235547 7.54349414,5.76233789 L6.22429102,7.08154102 C6.09793945,7.20789258 6.05401172,7.39235742 6.11075391,7.56216211 C6.34236328,8.25704297 5.99125781,9.01415039 5.31108984,9.2864707 L2.76006445,10.2934863 C2.75821875,10.3699512 2.74862109,10.4440957 2.74862109,10.5209824 C2.74862109,11.2089551 2.82461133,11.8791035 2.96240625,12.5263652 L4.67342578,11.8845879 C5.0675625,11.7371953 5.51063672,11.7916699 5.85667969,12.0315059 C6.20272266,12.2713418 6.41007422,12.6668496 6.41007422,13.0884082 L6.41007422,13.2692344 C6.57534375,13.269709 6.73829297,13.2692344 6.90445898,13.271502 C7.02348047,13.271502 7.13791406,13.3172754 7.22487305,13.4042344 C7.31183203,13.4911934 7.35760547,13.6102148 7.35760547,13.7292363 C7.35760547,13.9809902 7.151625,14.1869707 6.89069531,14.1869707 C6.74651953,14.185125 6.60872461,14.1855996 6.46729102,14.185125 C6.5895293,14.6323652 6.90672656,15.0090469 7.34663672,15.1976777 L8.75833594,15.8028047 C9.19550391,15.9900117 9.5882168,16.2555293 9.92513672,16.5923965 L10.2020977,16.8693047 C11.0031328,17.6708145 11.3079902,18.8453672 10.996752,19.9352813 L10.9724941,20.0208691 C11.4270117,20.0872617 11.8879629,20.1330352 12.360832,20.1330352 C17.3401699,20.1330352 21.4456465,16.3273535 21.9253711,11.4720469 L21.705627,11.6368418 C21.3906445,11.8735137 20.9887031,11.9636895 20.601,11.8900195 Z M11.0936777,13.9718145 C10.5626953,14.0679492 9.9493418,14.1320215 9.20779102,14.164084 C9.20320313,14.164084 9.19861523,14.164084 9.18949219,14.164084 C8.94232617,14.164084 8.74088086,13.9718145 8.73175781,13.7246484 C8.72716992,13.6006172 8.76835547,13.4861836 8.8507793,13.3950586 C8.93315039,13.3035117 9.04758398,13.2526758 9.17119336,13.2485625 C9.86238281,13.2165 10.4391387,13.1616035 10.9289355,13.069582 C11.1761016,13.0238086 11.4187324,13.1936133 11.459918,13.4362441 C11.4645059,13.4637187 11.4690937,13.4911934 11.4690937,13.5186152 C11.469041,13.7429473 11.3134219,13.9306289 11.0936777,13.9718145 Z" id="Shape"></path>
                        <path d="M9.55610156,17.5161445 L9.27914062,17.2392363 C9.02506641,16.9851621 8.72891016,16.7851406 8.39937305,16.643707 L6.98767383,16.0385801 C6.08180273,15.6504023 5.4963457,14.7624082 5.4963457,13.7768555 L5.4963457,13.0879336 C5.49544922,12.9647988 5.4372832,12.8540039 5.33613867,12.7835508 C5.23499414,12.7135195 5.11091016,12.6979629 4.99558008,12.741416 L3.19665234,13.4156777 C4.12588477,16.3493437 6.5491875,18.7694297 9.48607031,19.6922812 C9.51718359,19.7018789 9.54924609,19.709209 9.58083398,19.7188066 C9.7419375,19.7673223 9.90720703,19.8048691 10.0715273,19.8451582 L10.1177754,19.6835801 C10.3374668,18.912709 10.1223633,18.0823535 9.55610156,17.5161445 Z" id="Shape"></path>
                        <path d="M13.7348789,4.11201562 C12.4728926,4.11201562 11.4461543,5.221125 11.4461543,6.58383398 C11.4461543,7.51902539 12.738832,9.23373633 13.7344043,10.3135254 C14.5830586,9.38888086 16.0236035,7.60688086 16.0236035,6.58383398 C16.0235508,5.221125 14.9968652,4.11201562 13.7348789,4.11201562 Z M15.108082,6.85710352 C15.108082,7.36245703 14.6965957,7.77394336 14.1912422,7.77394336 L13.2789375,7.77394336 C12.773584,7.77394336 12.3620977,7.36287891 12.3620977,6.85710352 L12.3620977,5.94437695 C12.3620977,5.43902344 12.773584,5.02753711 13.2789375,5.02753711 L14.1912422,5.02753711 C14.6965957,5.02753711 15.108082,5.43860156 15.108082,5.94437695 L15.108082,6.85710352 Z" id="Shape"></path>
                        <rect id="Rectangle-path" x="13.2769336" y="5.94316406" width="1" height="1"></rect>
                    </g>
                </g>
            </g>
        </g>
    </g>
</svg>