<?xml version="1.0" encoding="UTF-8" standalone="no"?>
<svg width="24px" height="24px" viewBox="0 0 24 24" version="1.1" xmlns="http://www.w3.org/2000/svg" xmlns:xlink="http://www.w3.org/1999/xlink">
    <!-- Generator: Sketch 50.2 (55047) - http://www.bohemiancoding.com/sketch -->
    <title>twitter</title>
    <desc>Created with Sketch.</desc>
    <defs></defs>
    <g id="Page-1" stroke="none" stroke-width="1" fill="none" fill-rule="evenodd">
        <g id="website-copy-3" transform="translate(-1383.000000, -4936.000000)">
            <g id="Group-4" transform="translate(0.000000, 4910.000000)">
                <g id="Group-19" transform="translate(1347.000000, 26.000000)">
                    <g id="twitter" transform="translate(36.000000, 0.000000)">
                        <path d="M23.9354667,11.9003077 C23.9354667,18.437011 18.5770667,23.7365275 11.9677333,23.7365275 C5.3584,23.7365275 0,18.437011 0,11.9003077 C0,5.3636044 5.3584,0.0640879121 11.9677333,0.0640879121 C18.5770667,0.0640879121 23.9354667,5.3636044 23.9354667,11.9003077 Z" id="Fill-1" fill="#55ACEE"></path>
                        <path d="M19.2978667,8.57063736 C18.7853333,8.79534066 18.2333333,8.94778022 17.6552,9.01582418 C18.2458667,8.66531868 18.6989333,8.11120879 18.9136,7.45081319 C18.3605333,7.77441758 17.748,8.0101978 17.0968,8.13705495 C16.5749333,7.5869011 15.8312,7.24378022 15.0082667,7.24378022 C13.428,7.24378022 12.148,8.51103297 12.148,10.0726154 C12.148,10.2941538 12.1728,10.5106813 12.2218667,10.7177143 C9.8448,10.5992967 7.73653333,9.47314286 6.32613333,7.76096703 C6.0792,8.17925275 5.93866667,8.66531868 5.93866667,9.18356044 C5.93866667,10.1654505 6.44373333,11.0318242 7.2104,11.5387253 C6.7416,11.5242198 6.30106667,11.3965714 5.91466667,11.1842637 C5.91466667,11.1966593 5.91466667,11.208 5.91466667,11.2203956 C5.91466667,12.5905055 6.90106667,13.7340659 8.20933333,13.9938462 C7.96986667,14.0587253 7.7168,14.0938022 7.45626667,14.0938022 C7.272,14.0938022 7.0928,14.0761319 6.9176,14.0431648 C7.2824,15.1672088 8.33866667,15.9850549 9.59066667,16.0077363 C8.61146667,16.767033 7.37813333,17.2182857 6.0376,17.2182857 C5.80613333,17.2182857 5.57813333,17.2058901 5.3552,17.1792527 C6.6208,17.9818022 8.124,18.4504615 9.73946667,18.4504615 C15.0010667,18.4504615 17.8792,14.1389011 17.8792,10.4004396 C17.8792,10.2778022 17.876,10.1562198 17.8709333,10.0346374 C18.4301333,9.63586813 18.9146667,9.13740659 19.2978667,8.57063736 Z" id="Fill-2" fill="#F1F2F2"></path>
                    </g>
                </g>
            </g>
        </g>
    </g>
</svg>